<?xml version="1.0" encoding="UTF-8"?>
<svg id="Camada_1" data-name="Camada 1" xmlns="http://www.w3.org/2000/svg" viewBox="0 0 91.81 25.01">
  <defs>
    <style>
      .cls-1 {
        fill: #fff;
        stroke-width: 0px;
      }
    </style>
  </defs>
  <g>
    <g>
      <path class="cls-1" d="M53.62,23.21c0,.33-.04.59-.13.78-.08.19-.21.33-.39.42-.18.09-.42.13-.74.13h-.68v-2.68h.67c.31,0,.56.04.74.13s.31.23.4.43c.09.19.13.45.13.78ZM53.24,23.2c0-.26-.03-.46-.08-.6-.06-.14-.15-.25-.28-.31-.13-.07-.31-.1-.55-.1h-.3v2.03h.3c.23,0,.42-.03.54-.1.13-.07.22-.17.28-.31s.09-.35.09-.61Z"/>
      <path class="cls-1" d="M54.99,24.55v-2.68h1.64v.32h-1.28v.78h1.09v.32h-1.09v.92h1.28v.32h-1.64Z"/>
      <path class="cls-1" d="M59.81,23.81c0,.25-.08.44-.25.58-.16.14-.4.21-.72.21-.24,0-.44-.04-.6-.13-.16-.09-.29-.22-.39-.4l.29-.19c.15.27.38.4.7.4.19,0,.34-.04.45-.12.11-.08.16-.19.16-.33,0-.08-.02-.15-.05-.2-.03-.05-.08-.1-.14-.14-.06-.04-.12-.07-.2-.09-.07-.02-.15-.04-.23-.06-.13-.03-.25-.07-.37-.1-.11-.03-.21-.08-.29-.13s-.15-.12-.2-.21-.07-.19-.07-.33c0-.24.08-.43.23-.56.15-.14.38-.21.69-.21.24,0,.44.04.58.13.14.09.26.2.34.35l-.28.2c-.07-.12-.15-.21-.25-.27s-.23-.09-.38-.09c-.17,0-.31.04-.41.12-.1.08-.14.18-.14.31,0,.07.01.13.04.17.03.05.07.09.12.12.05.03.12.06.2.08.08.02.17.05.28.07.12.03.24.07.35.1.11.04.21.08.29.14.08.06.15.13.19.22s.07.21.07.35Z"/>
      <path class="cls-1" d="M62.07,22.19v2.35h-.36v-2.35h-.89v-.32h2.13v.32h-.89Z"/>
      <path class="cls-1" d="M65.12,24.55h-1.09v-.31h.37v-2.06h-.37v-.3h1.09v.3h-.37v2.06h.37v.31Z"/>
      <path class="cls-1" d="M66.46,24.55v-2.68h.36v2.35h1.21v.32h-1.57Z"/>
      <path class="cls-1" d="M69.01,24.55l.91-2.68h.46l.91,2.68h-.38l-.23-.7h-1.09l-.23.7h-.37ZM69.71,23.53h.87l-.44-1.3-.44,1.3Z"/>
      <path class="cls-1" d="M74.05,24.55l-.68-1.09h-.47v1.09h-.36v-2.68h.83c.33,0,.57.06.72.18.14.12.22.31.22.57,0,.22-.04.39-.13.52-.09.13-.23.21-.43.26l.73,1.15h-.42ZM73.94,22.65c0-.18-.04-.3-.13-.36-.09-.07-.23-.1-.43-.1h-.47v.95h.45c.15,0,.27-.02.35-.05.09-.03.15-.08.18-.15.04-.07.05-.17.05-.29Z"/>
      <path class="cls-1" d="M76.67,24.55h-1.09v-.31h.37v-2.06h-.37v-.3h1.09v.3h-.37v2.06h.37v.31Z"/>
      <path class="cls-1" d="M77.76,24.55l.91-2.68h.46l.91,2.68h-.38l-.23-.7h-1.09l-.23.7h-.37ZM78.46,23.53h.87l-.44-1.3-.44,1.3Z"/>
    </g>
    <path class="cls-1" d="M35.34,10.55c-.02-.52-.22-.14-.22-.14,0,0-.52,1.95-.68,2.22-.15.27-.55,1.14-1.13,1.6-.58.47-.95.71-1.1.73-.16.03-.21,0-.06-.48.16-.54.52-2.44.55-2.62.03-.19.39-1.75.32-2.32-.03-.34.23-2.18.28-2.32.04-.14.41-2.56.38-3.02-.04-.49-.49-1.57-.58-1.87-.1-.29-.19-1.18-.37-1.56-.18-.38-.1-.74-.3-.7-.19.03,0,.7,0,.78,0,.08.06.99.07,1.26.01.28.2,1.26.29,1.47.08.22.17.64.1,1.03-.07.39-.13,1.03-.26,1.22-.13.19-.53.85-1.03.31-.15-.16-.61-1.17-.81-1.48-.2-.3-.43-.93-.69-1.26-.27-.33-.49-.62-1.09-1.18-.6-.56-.65-.74-.85-1.01-.21-.26-.66-.89-.87-1.13-.14-.16-.37-.18-.04.33.33.52.87,1.62,1.14,1.97.27.35.72,1.22.86,1.48.14.26.58,1.15.76,1.48.18.33.52,1.09.77,1.62.25.53.67,1.61.74,2.56.07.95-.04,1.64-.21,2.35-.18.71-.14,1.45-.28,1.96,0,0-.09,1.27-.86,2.07-.32.33-.66.62-.98.86,0-.77-.03-1.43-.05-1.53,0,0-.24-.09-.34.63-.05.4-.09.87-.13,1.28-.21.15-.38.25-.46.3-.24.15-1.74.89-2.3,1.31-.57.42-3.64,2.42-3.81,2.6-.17.17-.39.24-.39.24,0,0-.02-1.4,0-1.57,0-.06.01-.28.02-.53l.66.08-.09-1.07-.56.17c0-.14,0-.24.01-.28.02-.15.08-1.24.11-1.42.03-.19.29-1.65.03-1.69-.25-.04-.23.59-.45,1.07-.21.48-.31,1.52-.37,1.84-.02.09-.04.31-.07.58-.76.08-2.1.22-3.06.32-1.06.11-2.48.3-3.61.45-.04-.55-.1-1.12-.13-1.28-.06-.32-.15-1.36-.37-1.84-.22-.47-.2-1.11-.45-1.07-.25.04,0,1.5.04,1.69.03.19.09,1.27.11,1.42.02.1.02.73.03,1.19-.69.1-1.16.16-1.16.16l.3.19s.34-.01.87-.03c0,.06,0,.11,0,.13.02.17,0,1.57,0,1.57,0,0-.22-.07-.38-.24-.17-.18-3.24-2.18-3.81-2.6-.57-.42-2.07-1.15-2.3-1.31-.08-.05-.25-.16-.46-.3-.05-.4-.08-.88-.13-1.28-.1-.72-.34-.63-.34-.63-.02.1-.05.75-.05,1.53-.32-.24-.66-.54-.98-.86-.77-.79-.86-2.07-.86-2.07-.14-.51-.1-1.24-.28-1.96-.18-.71-.28-1.4-.21-2.35.07-.95.49-2.03.74-2.56.25-.53.59-1.29.77-1.62.18-.33.62-1.22.76-1.48.14-.25.59-1.13.86-1.48.27-.35.81-1.45,1.14-1.97.33-.52.09-.5-.04-.34-.21.24-.66.87-.87,1.13-.2.26-.25.45-.85,1.01-.6.56-.82.85-1.09,1.18-.27.33-.5.96-.7,1.26-.21.32-.66,1.32-.81,1.48-.5.54-.89-.13-1.03-.31-.13-.19-.19-.83-.26-1.22-.07-.39.02-.81.1-1.03.09-.21.28-1.2.29-1.47.01-.28.08-1.18.08-1.26,0-.08.19-.75,0-.78-.19-.03-.12.32-.29.7-.18.38-.27,1.26-.37,1.56-.1.29-.54,1.38-.58,1.86-.03.46.33,2.88.37,3.02.04.14.31,1.98.28,2.32-.06.58.29,2.14.32,2.32.04.19.39,2.09.56,2.62.15.49.09.51-.06.48-.16-.03-.53-.26-1.1-.74-.58-.47-.98-1.33-1.13-1.6-.15-.27-.68-2.22-.68-2.22,0,0-.2-.38-.22.14-.02.52.21,2,.55,2.92.33.89,1.16,1.64,1.27,1.74.11.1,1.39.8,1.94,1.52.39.52,1.65,1.39,2.48,1.89,0,.07.02.13.03.2.19,1.24.58,1.97,1.93,2.76,1.41.82,2.27.27,3.93.77,1.65.5,1.23,1.84,1.23,1.84,0,0,.12.91,1.23.71,1.37-.24.93-1.8.93-1.8,0,0-.66-.29-.64-.52.02-.22-.09-.47-.25-.68-.16-.21-.21-1.19-.2-1.31,0-.04,0-.35-.04-.73,1.1-.04,2.55-.11,3.64-.18.91-.07,2.15-.16,2.93-.21-.04.52-.07,1.01-.06,1.06.02.11-.04,1.1-.2,1.31-.16.21-.27.45-.25.68.02.23-.62.56-.62.56,0,0-.46,1.51.91,1.75,1.12.2,1.23-.71,1.23-.71,0,0-.42-1.34,1.23-1.84,1.65-.5,2.52.05,3.93-.77,1.36-.79,1.75-1.53,1.93-2.77,0-.06.02-.13.03-.2.83-.5,2.08-1.37,2.48-1.89.55-.73,1.83-1.42,1.94-1.52.11-.11.93-.85,1.27-1.74.34-.91.57-2.4.55-2.92ZM10.34,20.95c-1.28.08-2.27-.63-2.65-1-.15-.15-.29-.43-.42-.74.55.25,1.44.74,1.44.74,0,0,1.71,1,1.63,1ZM25,20.88c-.08,0,1.64-1,1.64-1,0,0,.89-.49,1.44-.74-.13.31-.27.59-.42.74-.38.37-1.37,1.08-2.65,1Z"/>
  </g>
  <g>
    <path class="cls-1" d="M50.06,9.48v8.12c0,.62.16.95.76,1v.51h-3.82v-.51c.6-.05.76-.38.76-1v-3.78h-4.8v3.78c0,.62.16.95.76,1v.51h-3.82v-.51c.6-.05.76-.38.76-1v-8.12c0-.62-.16-.94-.76-1v-.49h3.82v.49c-.6.06-.76.38-.76,1v3.43h4.8v-3.43c0-.62-.16-.94-.76-1v-.49h3.82v.49c-.6.06-.76.38-.76,1Z"/>
    <path class="cls-1" d="M62.89,18.61v.51h-4.29v-.51c.62-.03.91-.41.68-1l-.75-1.88h-4.1l-.7,1.88c-.22.62.02.95.62,1v.51h-2.73v-.51c.59-.05.91-.4,1.11-1l2.94-7.98c.24-.62.14-1.1-.49-1.14v-.49h2.54l4.02,9.62c.25.59.56.95,1.14,1ZM58.17,14.82l-1.75-4.48-1.65,4.48h3.4Z"/>
    <path class="cls-1" d="M72.54,16.11l-.32,3h-8.78v-.92l6.14-9.28h-3.28c-1.49,0-2.02,1.22-2.24,2.07h-.4l.32-2.99h8.16v.92l-6.09,9.28h3.85c1.48,0,2.02-1.24,2.24-2.08h.4Z"/>
    <path class="cls-1" d="M82.11,16.11l-.32,3h-8.22v-.51c.6-.05.75-.38.75-1v-8.12c0-.62-.14-.94-.75-1v-.49h7.92l.3,2.99h-.4c-.22-.84-.75-2.08-2.24-2.08h-2.53v4.12h1.69c1.1,0,1.3-.37,1.41-1.03h.4v2.99h-.4c-.11-.67-.32-1.03-1.41-1.03h-1.69v4.26h2.85c1.48,0,2.02-1.24,2.24-2.08h.4Z"/>
    <path class="cls-1" d="M91.81,16.11l-.32,3h-8.27v-.51c.59-.05.75-.38.75-1v-8.12c0-.62-.16-.94-.75-1v-.49h3.82v.49c-.6.06-.76.38-.76,1v8.71h2.89c1.48,0,2.02-1.24,2.24-2.08h.4Z"/>
  </g>
</svg>