<?xml version="1.0" encoding="UTF-8"?>
<svg id="Camada_1" data-name="Camada 1" xmlns="http://www.w3.org/2000/svg" viewBox="0 0 171.06 54.84">
  <defs>
    <style>
      .cls-1 {
        fill: #fff;
        stroke-width: 0px;
      }
    </style>
  </defs>
  <g id="Logo">
    <path class="cls-1" d="M68.44,12.19c-.77-1.04-1.59-2.04-2.45-2.99C61.05,3.79,54.6.04,47.57.4c-5.17.26-9.63,3.05-13.33,6.93-1.96,2.05-3.7,4.4-5.23,6.85-3.93,6.3-4.97,13.94-3.36,21.33,1.31,5.97,4.15,11.54,8.58,15.14.99.8,2.06,1.51,3.21,2.1,6.27,3.21,13.32,1.74,19.76-1.05,2.97-1.29,6.03-2.7,8.77-4.47,3.9-2.53,7.13-5.8,8.47-10.5,2.42-8.51-.87-17.58-6.02-24.54ZM39.48,32.26c-.13.18-.37.21-.53.07l-.3-.25c-.08-.07-.13-.16-.14-.27-.01-.11.02-.21.08-.3l16.51-22.38c.13-.17.31-.18.43-.13.12.05.25.18.24.4l-1.01,20.77c0,.15-.09.28-.21.34-.12.07-.27.06-.38-.03l-3.92-2.88c-.19-.14-.24-.41-.11-.62l.2-.31c.06-.09.14-.15.24-.17.1-.02.2,0,.28.06l1.98,1.45c.19.14.44.15.64.01.17-.11.26-.32.27-.54l.66-13.65c.01-.28-.13-.52-.38-.62-.24-.1-.5-.02-.66.2l-13.9,18.84ZM61.58,27.81l-13.32,15.65c-.2.23-.46.23-.64.15-.18-.08-.36-.28-.35-.59l.89-19.99c.01-.22.13-.42.31-.52.08-.04.17-.07.25-.07.11,0,.22.04.32.11l3.12,2.29c.13.09.21.23.24.39.04.21-.03.43-.19.58-.18.17-.51.17-.71.02l-1.1-.81c-.19-.14-.43-.2-.66-.13-.34.1-.56.41-.57.77l-.59,13.38c-.01.31.12.63.37.79.33.21.73.14.97-.15l10.81-12.71c.21-.25.57-.27.8-.04.23.23.25.62.04.87Z"/>
    <rect class="cls-1" x="143.14" y="39" width="11.84" height=".65" rx=".21" ry=".21"/>
    <g>
      <g>
        <path class="cls-1" d="M88.54,25.06s-.04-.04-.06-.04h-.63s-.05.02-.06.04l-2.41,5.64s0,.05,0,.06c.01.02.03.03.06.03h.59s.05-.02.06-.04l.81-1.86h2.53l.8,1.86s.04.04.06.04h.62s.04-.01.06-.03.01-.04,0-.06l-2.42-5.64ZM89.14,28.25h-1.98l1-2.35.98,2.35Z"/>
        <path class="cls-1" d="M101.34,30.8h.56s.07-.03.07-.07v-5.64s-.03-.07-.07-.07h-.56s-.07.03-.07.07v4.48l-3.04-4.52s-.03-.03-.06-.03h-.76s-.07.03-.07.07v5.64s.03.07.07.07h.56s.07-.03.07-.07v-4.76l3.24,4.8s.03.03.06.03Z"/>
        <path class="cls-1" d="M112.35,25.52c-.49-.32-1.19-.51-1.9-.51h-1.67s-.07.03-.07.07v5.64s.03.07.07.07h1.65c.99,0,1.81-.3,2.35-.87.55-.56.84-1.25.84-1.99,0-.98-.48-1.9-1.26-2.41ZM109.41,25.67h.95c.69,0,1.29.17,1.68.47.57.44.87,1.05.87,1.78,0,.6-.22,1.17-.61,1.58-.42.44-1.05.66-1.92.66h-.97v-4.48Z"/>
        <path class="cls-1" d="M122.26,25.02h-1.7s-.07.03-.07.07v5.64s.03.07.07.07h.56s.07-.03.07-.07v-5.06h1.01c1.44,0,1.56.94,1.56,1.23,0,.75-.58,1.21-1.53,1.21h-.55s-.05.01-.06.04,0,.05,0,.07l1.91,2.55s.03.03.05.03h.71s.05-.01.06-.04c.01-.02,0-.05,0-.07l-1.52-2.01c.94-.13,1.62-.85,1.62-1.77s-.57-1.89-2.19-1.89Z"/>
        <path class="cls-1" d="M134.16,25.06s-.04-.04-.06-.04h-.63s-.05.02-.06.04l-2.41,5.64s0,.05,0,.06c.01.02.03.03.06.03h.59s.05-.02.06-.04l.81-1.86h2.53l.8,1.86s.04.04.06.04h.62s.04-.01.06-.03.01-.04,0-.06l-2.42-5.64ZM134.76,28.25h-1.98l1-2.35.98,2.35Z"/>
        <path class="cls-1" d="M145.93,25.52c-.49-.32-1.19-.51-1.9-.51h-1.67s-.07.03-.07.07v5.64s.03.07.07.07h1.65c.99,0,1.81-.3,2.35-.87.55-.56.84-1.25.84-1.99,0-.98-.48-1.9-1.26-2.41ZM142.99,25.67h.95c.69,0,1.29.17,1.68.47.57.44.87,1.05.87,1.78,0,.6-.22,1.17-.61,1.58-.42.44-1.05.66-1.92.66h-.97v-4.48Z"/>
        <path class="cls-1" d="M155.78,25.67s.07-.03.07-.07v-.51s-.03-.07-.07-.07h-3.09s-.07.03-.07.07v5.64s.03.07.07.07h3.09s.07-.03.07-.07v-.51s-.03-.07-.07-.07h-2.46v-1.94h2.37s.07-.03.07-.07v-.51s-.03-.07-.07-.07h-2.37v-1.89h2.46Z"/>
      </g>
      <g>
        <path class="cls-1" d="M89.17,40.49h-2.26v-5.06s-.03-.07-.07-.07h-.56s-.07.03-.07.07v5.64s.03.07.07.07h2.9s.07-.03.07-.07v-.51s-.03-.07-.07-.07Z"/>
        <path class="cls-1" d="M100.43,35.36h-3.09s-.07.03-.07.07v5.64s.03.07.07.07h3.09s.07-.03.07-.07v-.51s-.03-.07-.07-.07h-2.46v-1.94h2.37s.07-.03.07-.07v-.51s-.03-.07-.07-.07h-2.37v-1.89h2.46s.07-.03.07-.07v-.51s-.03-.07-.07-.07Z"/>
        <path class="cls-1" d="M113.62,35.36h-.87s-.05.02-.06.04l-2,4.66-1.99-4.66s-.04-.04-.06-.04h-.87s-.07.03-.07.07v5.64s.03.07.07.07h.56s.07-.03.07-.07v-4.72l1.98,4.75s.04.04.06.04h.48s.05-.02.06-.04l2-4.75v4.72s.03.07.07.07h.56s.07-.03.07-.07v-5.64s-.03-.07-.07-.07Z"/>
        <path class="cls-1" d="M124.04,35.36h-3.09s-.07.03-.07.07v5.64s.03.07.07.07h3.09s.07-.03.07-.07v-.51s-.03-.07-.07-.07h-2.46v-1.94h2.37s.07-.03.07-.07v-.51s-.03-.07-.07-.07h-2.37v-1.89h2.46s.07-.03.07-.07v-.51s-.03-.07-.07-.07Z"/>
        <path class="cls-1" d="M133.04,37.74c-.74-.19-1.04-.46-1.04-.92,0-.51.42-.92.95-.92s.93.43.93.95c0,.04.03.07.07.07h.56s.07-.03.07-.07c0-.9-.72-1.6-1.63-1.6s-1.65.68-1.65,1.59c0,1.04.74,1.34,1.63,1.59.76.22,1.09.56,1.09,1.1,0,.59-.47,1.05-1.07,1.05-.65,0-1.07-.42-1.11-1.1,0-.04-.03-.06-.07-.06h-.56s-.04,0-.05.02c-.01.01-.02.03-.02.05.02,1.03.76,1.74,1.81,1.74.99,0,1.77-.76,1.77-1.72,0-.9-.55-1.48-1.68-1.77Z"/>
      </g>
    </g>
  </g>
</svg>