<?xml version="1.0" encoding="UTF-8"?>
<svg id="Camada_2" data-name="Camada 2" xmlns="http://www.w3.org/2000/svg" xmlns:xlink="http://www.w3.org/1999/xlink" viewBox="0 0 229.9 219.3">
  <defs>
    <style>
      .cls-1 {
        fill: #2dd6d6;
      }

      .cls-1, .cls-2 {
        stroke-width: 0px;
      }

      .cls-3 {
        clip-path: url(#clippath-4);
      }

      .cls-4, .cls-2 {
        fill: #fff;
      }

      .cls-5 {
        clip-path: url(#clippath-3);
      }

      .cls-6 {
        clip-path: url(#clippath-5);
      }
    </style>
    <clipPath id="clippath-3">
      <path class="cls-2" d="M144.63,168.79l-20.9,12.06c-2.71,1.57-4.38,4.46-4.38,7.59v24.18c0,3.37,3.65,5.48,6.57,3.79l20.9-12.06c2.71-1.57,4.38-4.46,4.38-7.59v-24.18c0-2.56-2.1-4.39-4.39-4.39-.73,0-1.48.19-2.18.59"/>
    </clipPath>
    <clipPath id="clippath-4">
      <path class="cls-2" d="M82.24,172.6v24.13c0,3.13,1.66,6.02,4.37,7.59l20.94,12.09c2.92,1.69,6.57-.42,6.57-3.79v-24.13c0-3.13-1.66-6.02-4.37-7.59l-20.94-12.09c-.71-.41-1.45-.59-2.18-.59-2.29,0-4.39,1.83-4.39,4.39"/>
    </clipPath>
    <clipPath id="clippath-5">
      <path class="cls-2" d="M112.3,145.74l-20.94,12.09c-2.92,1.68-2.92,5.9,0,7.58l20.89,12.07c2.71,1.57,6.05,1.57,8.76,0l20.94-12.09c2.92-1.69,2.92-5.9,0-7.59l-20.89-12.07c-1.36-.78-2.87-1.18-4.38-1.18-1.51,0-3.02.39-4.38,1.17"/>
    </clipPath>
  </defs>
  <g id="Camada_1-2" data-name="Camada 1">
    <g>
      <g>
        <path class="cls-2" d="M59.39,3.91c-4.94-2.59-10.71-3.91-17.14-3.91H2.64C1.18,0,0,1.18,0,2.64v97.02c0,1.46,1.18,2.64,2.64,2.64h15.44c1.46,0,2.64-1.18,2.64-2.64v-34.13h21.53c6.24,0,11.92-1.31,16.86-3.91,4.96-2.6,8.94-6.33,11.83-11.09,2.9-4.76,4.36-10.4,4.36-16.76v-2.01c0-6.45-1.42-12.11-4.22-16.82-2.8-4.72-6.73-8.43-11.7-11.03M20.72,19h19.66c4.25,0,7.73,1.18,10.33,3.51,2.61,2.34,3.87,5.46,3.87,9.54v1.44c0,4.09-1.27,7.21-3.87,9.54-2.6,2.33-6.07,3.51-10.33,3.51h-19.66v-27.54Z"/>
        <path class="cls-2" d="M127.32,31.66c0-1.46-1.18-2.64-2.64-2.64h-6.86c-3.39,0-6.41.71-8.97,2.12-2.46,1.35-4.28,3.44-5.42,6.21h-1.1v-5.4c0-1.46-1.18-2.64-2.64-2.64h-14.29c-1.46,0-2.64,1.18-2.64,2.64v67.72c0,1.46,1.18,2.64,2.64,2.64h14.57c1.46,0,2.64-1.18,2.64-2.64v-38.74c0-4.78,1.39-8.34,4.13-10.59,2.79-2.3,6.42-3.46,10.79-3.46h7.14c1.46,0,2.64-1.18,2.64-2.64v-12.56Z"/>
        <path class="cls-2" d="M187.14,31.69c-5.75-2.92-12.31-4.4-19.5-4.4s-13.76,1.48-19.5,4.4c-5.78,2.94-10.39,7.25-13.72,12.83-3.32,5.57-5.01,12.34-5.01,20.13v2.3c0,7.79,1.69,14.56,5.01,20.13,3.33,5.58,7.94,9.89,13.72,12.83,5.75,2.92,12.31,4.4,19.5,4.4s13.75-1.48,19.5-4.4c5.77-2.94,10.39-7.25,13.71-12.83,3.32-5.57,5.01-12.34,5.01-20.13v-2.3c0-7.78-1.69-14.55-5.01-20.13-3.33-5.58-7.94-9.89-13.71-12.83M186,65.08v1.44c0,6.43-1.75,11.41-5.2,14.81-3.45,3.4-7.88,5.13-13.17,5.13s-9.72-1.73-13.17-5.13c-3.45-3.4-5.2-8.39-5.2-14.81v-1.44c0-6.43,1.75-11.41,5.2-14.81,3.45-3.41,7.88-5.13,13.17-5.13s9.83,1.73,13.24,5.13c3.4,3.4,5.13,8.39,5.13,14.82"/>
        <path class="cls-2" d="M72.18,159.39c-3.03-5.58-7.11-9.87-12.11-12.77-5-2.89-10.51-4.36-16.38-4.36-4.39,0-8.13.52-11.13,1.56-3.01,1.04-5.48,2.37-7.33,3.97-1.69,1.46-3.08,3.03-4.15,4.67h-1.22v-34.85c0-1.46-1.18-2.64-2.64-2.64H2.64c-1.46,0-2.64,1.18-2.64,2.64v97.02c0,1.46,1.18,2.64,2.64,2.64h14.29c1.46,0,2.64-1.18,2.64-2.64v-5.97h1.22c1.7,2.62,4.26,5.04,7.63,7.19,3.58,2.28,8.71,3.44,15.27,3.44,5.87,0,11.39-1.47,16.38-4.36,5-2.89,9.08-7.19,12.11-12.77,3.03-5.57,4.56-12.38,4.56-20.24v-2.3c0-7.87-1.53-14.68-4.56-20.24M56.88,180.07v1.44c0,6.61-1.79,11.69-5.33,15.09-3.55,3.41-8.03,5.14-13.32,5.14s-9.77-1.73-13.32-5.14c-3.54-3.4-5.33-8.48-5.33-15.09v-1.44c0-6.61,1.79-11.69,5.33-15.09,3.55-3.41,8.03-5.14,13.32-5.14s9.89,1.73,13.39,5.14c3.49,3.4,5.26,8.48,5.26,15.1"/>
        <path class="cls-2" d="M205.92,180.5l23.17-32.02c1.26-1.75.02-4.19-2.14-4.19h-16.59c-.87,0-1.69.43-2.18,1.15l-15.44,22.55h-1.66l-15.44-22.55c-.49-.72-1.31-1.15-2.18-1.15h-16.59c-2.16,0-3.41,2.44-2.14,4.19l23.17,32.02-23.47,32.6c-1.26,1.75,0,4.19,2.15,4.19h16.88c.88,0,1.7-.43,2.19-1.16l15.44-22.82h1.65l15.44,22.82c.49.73,1.31,1.16,2.19,1.16h16.88c2.15,0,3.4-2.44,2.14-4.19l-23.47-32.6Z"/>
        <g>
          <path class="cls-4" d="M144.63,168.79l-20.9,12.06c-2.71,1.57-4.38,4.46-4.38,7.59v24.18c0,3.37,3.65,5.48,6.57,3.79l20.9-12.06c2.71-1.57,4.38-4.46,4.38-7.59v-24.18c0-2.56-2.1-4.39-4.39-4.39-.73,0-1.48.19-2.18.59"/>
          <g class="cls-5">
            <rect class="cls-1" x="110.17" y="163.78" width="50.19" height="58.74" transform="translate(-69.83 76.8) rotate(-25.43)"/>
          </g>
        </g>
        <g>
          <path class="cls-4" d="M82.24,172.6v24.13c0,3.13,1.66,6.02,4.37,7.59l20.94,12.09c2.92,1.69,6.57-.42,6.57-3.79v-24.13c0-3.13-1.66-6.02-4.37-7.59l-20.94-12.09c-.71-.41-1.45-.59-2.18-.59-2.29,0-4.39,1.83-4.39,4.39"/>
          <g class="cls-3">
            <rect class="cls-1" x="73.07" y="163.78" width="50.23" height="58.74" transform="translate(-73.43 60.87) rotate(-25.43)"/>
          </g>
        </g>
        <g>
          <path class="cls-4" d="M112.3,145.74l-20.94,12.09c-2.92,1.68-2.92,5.9,0,7.58l20.89,12.07c2.71,1.57,6.05,1.57,8.76,0l20.94-12.09c2.92-1.69,2.92-5.9,0-7.59l-20.89-12.07c-1.36-.78-2.87-1.18-4.38-1.18-1.51,0-3.02.39-4.38,1.17"/>
          <g class="cls-6">
            <rect class="cls-1" x="83.77" y="134.12" width="65.77" height="55.38" transform="translate(-58.18 65.77) rotate(-25.43)"/>
          </g>
        </g>
      </g>
      <path class="cls-2" d="M208.98,93.86c0,5.78,4.68,10.46,10.46,10.46s10.46-4.68,10.46-10.46-4.68-10.46-10.46-10.46-10.46,4.68-10.46,10.46"/>
    </g>
  </g>
</svg>