<?xml version="1.0" encoding="UTF-8"?>
<svg id="Camada_1" data-name="Camada 1" xmlns="http://www.w3.org/2000/svg" viewBox="0 0 92.34 28.39">
  <defs>
    <style>
      .cls-1 {
        fill: #fff;
        stroke-width: 0px;
      }
    </style>
  </defs>
  <g id="Logo">
    <path class="cls-1" d="M22.8,6.19c-.4-.54-.83-1.07-1.29-1.56C18.93,1.79,15.55-.17,11.86.01c-2.71.14-5.04,1.6-6.98,3.63-1.03,1.07-1.94,2.31-2.74,3.59C.08,10.53-.46,14.54.38,18.41c.69,3.13,2.18,6.05,4.5,7.93.52.42,1.08.79,1.68,1.1,3.28,1.68,6.98.91,10.36-.55,1.56-.67,3.16-1.41,4.6-2.34,2.04-1.33,3.74-3.04,4.44-5.5,1.27-4.46-.45-9.21-3.15-12.86ZM7.62,16.71c-.07.09-.19.11-.28.03l-.16-.13s-.07-.09-.07-.14c0-.06,0-.11.04-.16L15.81,4.58c.07-.09.16-.09.23-.07.07.03.13.1.13.21l-.53,10.88c0,.08-.05.15-.11.18-.07.03-.14.03-.2-.01l-2.06-1.51c-.1-.07-.12-.22-.06-.32l.1-.16s.07-.08.13-.09c.05-.01.1,0,.15.03l1.04.76c.1.07.23.08.34,0,.09-.06.14-.17.14-.28l.35-7.15c0-.15-.07-.27-.2-.33-.13-.05-.26-.01-.35.1l-7.28,9.87ZM19.2,14.37l-6.98,8.2c-.1.12-.24.12-.33.08-.09-.04-.19-.15-.18-.31l.46-10.47c0-.12.07-.22.16-.27.04-.02.09-.03.13-.03.06,0,.12.02.17.06l1.64,1.2c.07.05.11.12.12.21.02.11-.02.23-.1.31-.1.09-.27.09-.37.01l-.58-.42c-.1-.07-.23-.11-.34-.07-.18.05-.29.21-.3.4l-.31,7.01c0,.16.06.33.19.41.17.11.38.08.51-.08l5.66-6.66c.11-.13.3-.14.42-.02.12.12.13.32.02.45Z"/>
    <g>
      <rect class="cls-1" x="81.78" y="20.97" width="9.84" height=".54" rx=".18" ry=".18"/>
      <g>
        <g>
          <path class="cls-1" d="M36.4,9.39s-.03-.03-.05-.03h-.53s-.04.01-.05.03l-2,4.69s0,.04,0,.05c.01.02.03.03.05.03h.49s.04-.01.05-.03l.67-1.54h2.1l.66,1.54s.03.03.05.03h.51s.04,0,.05-.03.01-.04,0-.05l-2.01-4.69ZM36.91,12.04h-1.65l.83-1.95.82,1.95Z"/>
          <path class="cls-1" d="M47.04,14.15h.47s.06-.03.06-.06v-4.69s-.03-.06-.06-.06h-.47s-.06.03-.06.06v3.72l-2.53-3.75s-.03-.03-.05-.03h-.63s-.06.03-.06.06v4.69s.03.06.06.06h.47s.06-.03.06-.06v-3.96l2.69,3.99s.03.02.05.02Z"/>
          <path class="cls-1" d="M56.19,9.77c-.41-.27-.99-.42-1.58-.42h-1.39s-.06.03-.06.06v4.69s.03.06.06.06h1.37c.83,0,1.5-.25,1.95-.72.45-.47.69-1.04.69-1.65,0-.81-.4-1.58-1.05-2ZM53.75,9.89h.79c.58,0,1.07.14,1.4.39.47.37.73.88.73,1.48,0,.5-.18.97-.5,1.32-.35.37-.87.55-1.6.55h-.8v-3.73Z"/>
          <path class="cls-1" d="M64.43,9.35h-1.41s-.06.03-.06.06v4.69s.03.06.06.06h.47s.06-.03.06-.06v-4.21h.84c1.2,0,1.29.78,1.29,1.02,0,.62-.49,1.01-1.27,1.01h-.46s-.04.01-.05.03,0,.04,0,.06l1.59,2.12s.03.02.05.02h.59s.04-.01.05-.03c0-.02,0-.04,0-.06l-1.26-1.67c.79-.1,1.34-.71,1.34-1.47s-.48-1.57-1.82-1.57Z"/>
          <path class="cls-1" d="M74.31,9.39s-.03-.03-.05-.03h-.53s-.04.01-.05.03l-2,4.69s0,.04,0,.05c.01.02.03.03.05.03h.49s.04-.01.05-.03l.67-1.54h2.1l.66,1.54s.03.03.05.03h.51s.04,0,.05-.03.01-.04,0-.05l-2.01-4.69ZM74.82,12.04h-1.65l.83-1.95.82,1.95Z"/>
          <path class="cls-1" d="M84.1,9.77c-.41-.27-.99-.42-1.58-.42h-1.39s-.06.03-.06.06v4.69s.03.06.06.06h1.37c.83,0,1.5-.25,1.95-.72.45-.47.69-1.04.69-1.65,0-.81-.4-1.58-1.05-2ZM81.65,9.89h.79c.58,0,1.07.14,1.4.39.47.37.73.88.73,1.48,0,.5-.18.97-.5,1.32-.35.37-.87.55-1.6.55h-.8v-3.73Z"/>
          <path class="cls-1" d="M92.28,9.89s.06-.03.06-.06v-.42s-.03-.06-.06-.06h-2.57s-.06.03-.06.06v4.69s.03.06.06.06h2.57s.06-.03.06-.06v-.42s-.03-.06-.06-.06h-2.04v-1.62h1.97s.06-.03.06-.06v-.42s-.03-.06-.06-.06h-1.97v-1.57h2.04Z"/>
        </g>
        <g>
          <path class="cls-1" d="M36.93,22.21h-1.88v-4.21s-.03-.06-.06-.06h-.47s-.06.03-.06.06v4.69s.03.06.06.06h2.41s.06-.03.06-.06v-.42s-.03-.06-.06-.06Z"/>
          <path class="cls-1" d="M46.29,17.95h-2.57s-.06.03-.06.06v4.69s.03.06.06.06h2.57s.06-.03.06-.06v-.42s-.03-.06-.06-.06h-2.04v-1.62h1.97s.06-.03.06-.06v-.42s-.03-.06-.06-.06h-1.97v-1.57h2.04s.06-.03.06-.06v-.42s-.03-.06-.06-.06Z"/>
          <path class="cls-1" d="M57.24,17.95h-.72s-.04.01-.05.03l-1.66,3.87-1.65-3.87s-.03-.03-.05-.03h-.72s-.06.03-.06.06v4.69s.03.06.06.06h.47s.06-.03.06-.06v-3.92l1.65,3.94s.03.03.05.03h.4s.04-.01.05-.03l1.66-3.95v3.92s.03.06.06.06h.47s.06-.03.06-.06v-4.69s-.03-.06-.06-.06Z"/>
          <path class="cls-1" d="M65.9,17.95h-2.57s-.06.03-.06.06v4.69s.03.06.06.06h2.57s.06-.03.06-.06v-.42s-.03-.06-.06-.06h-2.04v-1.62h1.97s.06-.03.06-.06v-.42s-.03-.06-.06-.06h-1.97v-1.57h2.04s.06-.03.06-.06v-.42s-.03-.06-.06-.06Z"/>
          <path class="cls-1" d="M73.38,19.92c-.61-.16-.86-.38-.86-.76,0-.43.35-.76.79-.76s.77.36.77.79c0,.03.03.06.06.06h.47s.06-.03.06-.06c0-.75-.6-1.33-1.36-1.33s-1.37.57-1.37,1.32c0,.87.61,1.11,1.35,1.32.63.18.91.46.91.91,0,.49-.39.87-.89.87-.54,0-.89-.35-.92-.92,0-.03-.03-.05-.06-.05h-.47s-.03,0-.04.02c-.01.01-.02.03-.02.04.01.85.63,1.45,1.5,1.45.82,0,1.47-.63,1.47-1.43,0-.75-.46-1.23-1.4-1.47Z"/>
        </g>
      </g>
    </g>
  </g>
</svg>