<?xml version="1.0" encoding="UTF-8"?>
<svg id="Camada_1" data-name="Camada 1" xmlns="http://www.w3.org/2000/svg" viewBox="0 0 171.06 54.84">
  <defs>
    <style>
      .cls-1 {
        fill: #fff;
        stroke-width: 0px;
      }
    </style>
  </defs>
  <path class="cls-1" d="M162.61,32.18c-.26.29-.61.53-.77.86-1.07,2.31-2.9,3.49-5.38,3.6-2.01.09-4.02.09-6.03,0-3.28-.15-5.53-2.45-5.6-5.65,1.4.02,2.95-.77,3.77,1.33.22.56,1.42.97,2.2,1.04,1.78.15,3.58.08,5.38.02,1.7-.05,2.82-1.11,2.82-2.55,0-1.4-1.17-2.48-2.86-2.52-2.06-.05-4.13,0-6.2,0-3.28-.02-5.41-2.01-5.39-5.03.02-3.04,2.1-4.97,5.42-5,2.12-.02,4.24-.07,6.36.02,2.89.12,4.81,2.13,4.77,4.93-1.34-.04-2.88.8-3.73-1.13-.14-.32-.95-.48-1.46-.5-2.01-.06-4.02-.03-6.03-.02-1.18,0-2.09.42-2.05,1.76.04,1.3.92,1.72,2.11,1.71,1.9-.02,3.8.02,5.71-.01,2.96-.04,5.15,1.09,6.29,3.95.1.24.43.39.66.58v2.61Z"/>
  <path class="cls-1" d="M12.07,38.06c-1.41-1.5-.87-2.59.54-3.81,1.88-1.62,3.6-3.44,5.34-5.23.78-.8,1.41-.77,2.18,0,2.1,2.12,4.17,4.25,6.37,6.26,1.37,1.25-.33,1.84-.39,2.76h-1.96c-1.65-1.81-3.3-3.62-5.15-5.65-1.81,2.06-3.39,3.86-4.97,5.65h-1.96Z"/>
  <path class="cls-1" d="M78.11,36.48h-3.06v-18.6c.87.46,1.51.71,2.04,1.1,1.93,1.42,3.86,2.84,5.72,4.34.85.69,1.46.61,2.26-.04,1.95-1.56,3.96-3.07,5.98-4.54.4-.29.97-.36,1.47-.53.14.49.41.98.41,1.47.03,5.55.02,11.09.02,16.78h-3.12v-12.79c-1.75,1.32-3.2,2.32-4.52,3.46-1.02.88-1.8.85-2.81-.02-1.29-1.12-2.72-2.09-4.38-3.33v12.7Z"/>
  <path class="cls-1" d="M108.52,24.31c0,1.46,0,2.41,0,3.36,0,2.18,0,4.35,0,6.53.01,2.74,0,2.76-2.98,2.28v-18.86c4.81,4.23,9.37,8.23,14.26,12.54v-11.84h3.11v18.68c-4.88-4.3-9.43-8.32-14.4-12.7Z"/>
  <path class="cls-1" d="M144.78,36.56c-.87,0-1.47-.06-2.05.01-1.08.14-1.64-.32-2.12-1.29-1.71-3.46-3.52-6.87-5.29-10.29-.14-.27-.33-.52-.61-.95-1.83,3.54-3.57,6.91-5.33,10.27q-1.33,2.55-4.5,2.09c.13-.35.23-.69.39-.99,2.71-5.27,5.41-10.54,8.16-15.78.3-.57.9-.97,1.37-1.45.43.45.99.82,1.27,1.35,2.75,5.24,5.46,10.51,8.17,15.78.17.33.29.68.54,1.26Z"/>
  <path class="cls-1" d="M52.98,36.35c3.01-5.83,5.94-11.54,8.92-17.22.69-1.31,1.45-1.36,2.11-.11,3,5.72,5.94,11.47,8.92,17.24-2.67.79-3.26.56-4.43-1.69-1.78-3.42-3.54-6.85-5.48-10.59-.47.86-.82,1.48-1.14,2.11-1.45,2.8-2.89,5.61-4.34,8.41-1.25,2.41-1.4,2.46-4.54,1.87Z"/>
  <path class="cls-1" d="M55.91,18.52v2.99c-1.33,0-2.56,0-3.79,0-3.21,0-6.41.03-9.62-.02-1.32-.02-1.84.46-1.81,1.82.06,3.81.02,7.61.02,11.42,0,.58,0,1.17,0,1.84h-3.14c-.04-.48-.11-.89-.11-1.3,0-5.06,0-10.11-.02-15.17,0-1.04.12-1.83,1.44-1.82,5.54.03,11.08.03,16.63.05.09,0,.19.09.41.19Z"/>
  <path class="cls-1" d="M19.28,22.1c1.43-1.51,2.76-3.09,4.29-4.44.56-.49,1.71-.77,2.41-.55,1.26.39,1.35,1.4.4,2.35-2.07,2.07-4.18,4.1-6.23,6.19-.88.9-1.53.7-2.32-.1-1.94-1.97-3.93-3.9-5.88-5.86-.6-.6-1.42-1.19-.45-2.15.91-.91,1.86-1.1,2.84-.15,1.37,1.32,2.71,2.66,4.06,3.99.19.18.41.33.88.71Z"/>
  <path class="cls-1" d="M24.42,27.65c1.48,1.37,3.02,2.8,4.56,4.23.83.77,1.06,1.62.32,2.58-.67.87-1.37,1.13-2.27.21-2.05-2.09-4.13-4.16-6.23-6.19-.89-.86-.75-1.52.08-2.31,2.03-1.96,4.01-3.96,6.01-5.94.65-.64,1.29-1.23,2.17-.27.84.91.93,1.81.07,2.73-1.44,1.55-2.91,3.07-4.72,4.97Z"/>
  <path class="cls-1" d="M14.24,27.48c-1.89-1.76-3.31-3.09-4.72-4.42-.31-.3-.83-.68-.8-.97.08-.78.32-1.58.71-2.25.09-.15,1.22.02,1.57.36,2.11,1.96,4.1,4.04,6.18,6.03.81.77.85,1.38.03,2.17-2.03,1.96-4.03,3.96-6.02,5.97-.63.63-1.2,1.15-2.04.34-.85-.81-.97-1.69-.15-2.56.97-1.03,1.97-2.02,3.01-2.98.56-.52,1.21-.92,2.22-1.68Z"/>
  <path class="cls-1" d="M100.73,36.56h-3.08v-18.16h3.08v18.16Z"/>
  <path class="cls-1" d="M52.55,28.13h-8.24v-3.07h8.24v3.07Z"/>
</svg>