<?xml version="1.0" encoding="UTF-8"?>
<svg id="Camada_1" data-name="Camada 1" xmlns="http://www.w3.org/2000/svg" viewBox="0 0 171.06 54.84">
  <defs>
    <style>
      .cls-1 {
        fill: #fff;
        stroke-width: 0px;
      }
    </style>
  </defs>
  <path class="cls-1" d="M146.48,17.65c0,1.36.03,2.72-.01,4.08-.03.84.3,1.18,1.14,1.15.9-.03,1.82-.03,2.71.1.99.14,1.72.71,1.68,1.8-.04,1.13-.78,1.68-1.86,1.81-.15.02-.33-.05-.45.02-1.02.53-3.01-1.22-3.19,1.17-.35,4.73.51,6.32,3.36,6.75,1.2.18,2.25.63,2.11,2.04-.14,1.39-1.26,1.7-2.46,1.67-3.49-.07-6.53-2.78-7.03-6.33-.17-1.19-.13-2.41-.22-3.61-.05-.72.36-1.76-1.02-1.69-1.14.05-2.47-.16-2.63,1.52-.11,1.2-.16,2.41-.16,3.61,0,4.88-3.64,7.65-8.41,6.4-1.08-.29-1.56-1.02-1.55-2.11,0-1.86.02-3.73,0-5.59-.03-2.25-1.47-3.76-3.61-3.83-2.18-.07-3.76,1.4-3.97,3.69-.19,2.09,1.24,3.9,3.3,4.19.05,0,.1.01.15.02,1.92.22,2.7.82,2.61,2-.1,1.23-1.21,1.86-3.03,1.72-4.25-.33-7.27-3.77-7.1-8.07.17-4.21,3.61-7.32,8.06-7.28,4.28.04,7.53,3.15,7.65,7.33.03,1.01,0,2.01.02,3.02.01.42-.16,1.01.5,1.08.56.06.97-.29,1.12-.83.12-.43.17-.89.18-1.34.03-1.01,0-2.01.01-3.02.09-4.01,2.01-6.1,6.02-6.19,1.56-.03,1.98-.47,1.91-1.98-.12-2.36-.06-4.73-.03-7.1.02-1.7.77-2.58,2.1-2.57,1.32,0,2.06.9,2.08,2.59.02,1.26,0,2.52,0,3.78h0Z"/>
  <path class="cls-1" d="M33.4,24.83c1.33-.99,2.64-1.73,4.17-1.96,1.56-.23,3.06-.09,4.12,1.23.57.71.96.55,1.59.12,1.62-1.11,3.41-1.75,5.41-1.29,1.87.44,2.88,1.65,2.91,3.69.06,3.42,0,6.84.03,10.26,0,.77-.26,1.03-1.04,1.07-2.91.15-2.91.18-2.91-2.78,0-2.21.03-4.43-.01-6.64-.04-2.2-.99-2.73-3.04-1.84-1.43.62-2.19,1.45-2.06,3.19.18,2.3.02,4.63.06,6.94.02.85-.26,1.12-1.12,1.14-2.84.07-2.84.11-2.84-2.71,0-2.36.02-4.73,0-7.09-.02-1.61-.8-2.17-2.34-1.72-2.07.6-2.61,1.33-2.61,3.52,0,2.26-.03,4.53.02,6.79.02.92-.27,1.2-1.2,1.21-2.87.02-2.87.06-2.87-2.86,0-3.47-.02-6.94.01-10.42,0-.6-.4-1.64.81-1.5,1,.11,2.62-.87,2.72,1.25,0,.09.08.17.18.39Z"/>
  <path class="cls-1" d="M56.42,33.32c0-2.97-.01-5.93.01-8.9,0-.49-.26-1.34.62-1.22.93.12,2.26-.78,2.73.62.32.95.59.83,1.2.41.97-.66,2.05-1.04,3.2-1.26,3.19-.61,5.33.68,6.09,3.83.6,2.47.61,4.99.06,7.47-.61,2.76-2.67,4.19-5.7,4.01-1.1-.07-2.21-.2-3.23-.68-.75-.35-.97-.12-.95.66.03,1.41-.03,2.82.02,4.22.03.79-.27,1.02-1.04,1.06-3,.14-3,.17-3-2.84,0-2.46,0-4.93,0-7.39ZM60.45,31.05c0,.6.07,1.22-.01,1.81-.15,1.13.33,1.58,1.43,1.79,3.75.69,4.62,0,4.63-3.87,0-.35,0-.7,0-1.06-.11-3.43-1.68-4.3-4.7-2.7-1.02.54-1.52,1.21-1.36,2.38.08.54.01,1.1.01,1.66Z"/>
  <path class="cls-1" d="M82.09,32.27c-.81,0-1.61.02-2.42,0-1.18-.04-1.1.58-.7,1.33.42.79,1.14,1.09,1.99,1.16,1.76.13,3.52-.01,5.27-.18.64-.06,1.23-.17,1.24.77,0,.82.75,1.86-.65,2.23-2.86.76-5.75,1.06-8.64.23-1.91-.55-3.06-1.88-3.53-3.78-.59-2.43-.61-4.89.07-7.31.74-2.68,2.8-3.71,5.35-3.87,2.68-.17,5.51-.32,7.27,2.23,1.15,1.66,1.09,3.67.17,5.48-.82,1.64-2.44,1.76-4.05,1.7-.45-.02-.91,0-1.36,0ZM81.15,29.29c.4,0,.8-.02,1.2,0,.8.04,1.55.01,1.66-1.04.1-1.01-.18-1.77-1.3-2.04-.96-.23-1.91-.18-2.82.14-1.07.37-1.39,1.34-1.32,2.3.09,1.13,1.09.45,1.67.61.28.08.6.01.9.02Z"/>
  <path class="cls-1" d="M110.6,22.25c0,2.71-.01,5.43,0,8.14.02,2.53,1.07,3.74,3.59,4.14,1.11.18,1.95.67,1.88,1.93-.08,1.33-1.04,1.73-2.21,1.76-3.3.08-6.48-2.48-7.15-5.8-.17-.83-.25-1.69-.26-2.54-.02-5.28-.01-10.56-.02-15.84,0-.66-.03-1.34.36-1.9.55-.79,1.36-1.01,2.27-.79,1.1.27,1.52,1.08,1.53,2.14,0,2.92,0,5.83,0,8.75h0Z"/>
  <path class="cls-1" d="M92.19,30.52c0-2.01-.01-4.02,0-6.03,0-.54-.26-1.41.72-1.3.87.1,2.15-.74,2.55.7.31,1.12.77.74,1.36.36,1.29-.83,2.7-1.31,4.22-1.48.85-.1,1.4.08,1.16,1.12-.07.29-.09.6-.1.9-.01,1.3-.31,2.17-1.96,1.94-.98-.13-1.95.41-2.91.69-.82.23-1.1.69-1.08,1.53.04,2.56-.04,5.12.04,7.68.03,1.09-.35,1.35-1.38,1.33-2.64-.03-2.64.02-2.63-2.63,0-1.61,0-3.21,0-4.82Z"/>
  <path class="cls-1" d="M24.73,30.53c0,2.06-.03,4.12.01,6.17.02.86-.18,1.28-1.16,1.26-3.6-.09-2.85.41-2.89-2.8-.05-3.51.04-7.03-.04-10.54-.03-1.24.39-1.53,1.55-1.49,2.96.12,2.49-.4,2.53,2.58.02,1.61,0,3.21,0,4.82Z"/>
  <path class="cls-1" d="M22.77,17.09c1.77,0,2.08.32,2.08,2.11,0,1.72-.32,2.01-2.18,2.01-1.94,0-2.11-.17-2.09-2.18.01-1.76.22-1.95,2.19-1.94Z"/>
</svg>