<?xml version="1.0" encoding="UTF-8"?>
<svg id="Camada_1" data-name="Camada 1" xmlns="http://www.w3.org/2000/svg" viewBox="0 0 171.06 54.84">
  <defs>
    <style>
      .cls-1 {
        fill: #fff;
        stroke-width: 0px;
      }
    </style>
  </defs>
  <path class="cls-1" d="M37.86,36.45h34.38v4.38h-34.38v-4.38Z"/>
  <path class="cls-1" d="M100.64,42.85h-2.54v-13.93c-1.04-.48-1.14.05-1.13.79.01,3.9,0,7.81,0,11.71v1.37h-2.37V12.7c1.39,0,2.84-.11,4.26.04,1.09.12,1.77,1.21,1.77,2.46.01,2.29-.14,4.59.05,6.86.17,2.11-.42,4.16-.12,6.3.3,2.17.08,4.41.08,6.61,0,2.17,0,4.34,0,6.51v1.37ZM98.03,15.58c-.66-.15-1.11-.19-1.07.62.02.35,0,.71,0,1.06,0,2.52-.01,5.04.02,7.55,0,.26.3.51.46.77.19-.22.56-.43.56-.65.04-3.1.03-6.2.03-9.34Z"/>
  <path class="cls-1" d="M72.27,28.99v4.39h-34.41v-4.39h34.41Z"/>
  <path class="cls-1" d="M72.27,14.05v4.37h-34.41v-4.37h34.41Z"/>
  <path class="cls-1" d="M37.84,25.86v-4.35h34.39v4.35h-34.39Z"/>
  <path class="cls-1" d="M119.26,27.86c0-3.98,0-7.97,0-11.95,0-2.18,1.06-3.28,3.12-3.28,2.06,0,3.12,1.09,3.12,3.28,0,7.93.01,15.86,0,23.79,0,2.14-1.11,3.24-3.19,3.22-1.99-.02-3.06-1.13-3.06-3.22,0-3.94,0-7.89,0-11.83ZM121.78,15.52v24.45h1.12V15.52h-1.12Z"/>
  <path class="cls-1" d="M110.32,21.33h-2.32v-5.75c-.44-.04-.77-.07-1.21-.11v24.57c.34.02.67.05,1.01.07.06-.16.14-.26.15-.37.01-2.8.03-5.6,0-8.4,0-.28-.35-.54-.52-.82-.14-.24-.36-.48-.38-.73-.05-.66-.02-1.34-.02-2.1h3.37c.02.36.07.7.07,1.04,0,3.67,0,7.33,0,11,0,2.09-1.15,3.23-3.22,3.2-1.97-.02-3.07-1.16-3.08-3.23,0-7.97,0-15.93,0-23.9,0-2.05,1.11-3.15,3.13-3.16,2.03,0,3.16,1.1,3.16,3.13,0,1.73,0,3.47-.02,5.2,0,.11-.07.22-.13.36Z"/>
  <path class="cls-1" d="M131.66,33.16h2.48v6.75c.09.09.19.19.28.28.29-.23.83-.45.83-.68.05-3.58.04-7.16.04-10.89-.64,0-1.18.03-1.71,0-1.23-.08-1.88-.63-1.89-1.83-.05-3.86-.06-7.73,0-11.59.03-1.62,1.3-2.57,3.1-2.55,1.79.02,2.98,1,3.03,2.63.06,2.13.01,4.26.01,6.48h-2.53c0-1.77-.03-3.57.01-5.36.02-.81-.24-1.1-1.07-.78v9.97c.34.02.65.06.95.07,2.02.03,2.64.62,2.65,2.6.01,3.94.03,7.89,0,11.83-.02,2.26-1.45,3.46-3.6,3.1-1.43-.24-2.48-1.32-2.53-2.85-.07-2.36-.02-4.72-.02-7.15Z"/>
  <path class="cls-1" d="M76.45,33.14h2.5v6.89h1.2v-11.42c-.6,0-1.18.03-1.75,0-1.24-.09-1.91-.7-1.92-1.95-.04-3.82-.05-7.65,0-11.47.02-1.54,1.26-2.51,2.99-2.55,1.76-.04,3.07.84,3.14,2.36.11,2.23.03,4.47.03,6.78h-2.38v-6.18c-.43-.05-.76-.09-1.2-.14v10.13c.28.02.54.05.81.06,2.11.03,2.79.65,2.81,2.73.03,3.82.03,7.65,0,11.47-.02,2.05-1.17,3.12-3.21,3.07-1.94-.04-3.01-1.15-3.02-3.16,0-2.17,0-4.33,0-6.62Z"/>
  <path class="cls-1" d="M91.43,12.64v2.82h-2.56v10.18h2.54v2.92c-.84.04-1.67.08-2.57.12v11.13h2.53v3.1c-1.01,0-2.02.05-3.03-.01-1.09-.07-1.68-.79-1.93-1.79-.1-.41-.11-.86-.11-1.29,0-8.04,0-16.08,0-24.12,0-.43,0-.88.1-1.29.25-1.01.86-1.7,1.96-1.75.98-.05,1.96-.01,3.07-.01Z"/>
  <path class="cls-1" d="M115.92,42.87h-2.23V12.69h2.23v30.18Z"/>
  <path class="cls-1" d="M129.93,6.5v10.85h-2.34V6.5h2.34Z"/>
</svg>