<?xml version="1.0" encoding="UTF-8"?>
<svg id="Camada_1" data-name="Camada 1" xmlns="http://www.w3.org/2000/svg" viewBox="0 0 49.47 27.13">
  <defs>
    <style>
      .cls-1 {
        fill: #fff;
        stroke-width: 0px;
      }
    </style>
  </defs>
  <path class="cls-1" d="M0,5.44s.05-.02.08-.02C.11,6.04.17,6.66,0,7.27v-1.84Z"/>
  <g>
    <path class="cls-1" d="M28.13,19.9c-.29.01-.51.12-.52.45-.01.26.14.38.44.37.23-.03.47-.11.48-.44,0-.26-.14-.39-.39-.38Z"/>
    <path class="cls-1" d="M25.26,20.29c-.28,0-.45.15-.47.43-.01.25.14.37.39.37.2,0,.33-.08.41-.23.07-.13.08-.28.01-.41-.06-.11-.16-.18-.34-.17Z"/>
    <path class="cls-1" d="M22.83,20.15c-.34-.16-.75.01-.61.48.22-.12.4-.25.61-.48Z"/>
    <path class="cls-1" d="M8.47,20.01c-.29,0-.52.13-.53.42-.01.26.2.38.5.38.22-.02.44-.11.45-.4.02-.27-.16-.39-.42-.4Z"/>
    <path class="cls-1" d="M17.12,20.25c-.26.03-.51.14-.51.47,0,.25.17.39.41.37.28-.02.49-.16.52-.48-.03-.24-.19-.37-.42-.35Z"/>
    <path class="cls-1" d="M15.75,21.17c-.04-.06-.07-.13-.11-.19-.01.09.04.15.11.19Z"/>
    <path class="cls-1" d="M49.42,7.77c-.04-.71-.14-1.41-.51-2.03-.54-.91-1.22-1.7-2.05-2.35-1.52-1.18-3.26-1.94-5.11-2.44C38.52.09,35.23-.13,31.9.07c-2.09.12-4.16.37-6.22.76-3.65.7-7.17,1.81-10.57,3.32-.33.15-.64.18-.98.09-.48-.12-.98-.19-1.48-.19-1.29,0-2.52.27-3.73.67-.56.19-1.09.28-1.6-.12-.14-.11-.32-.15-.49-.2-2.22-.65-4.36-.41-6.43.58-.23.11-.34.27-.36.52-.03.59.06,1.19-.05,1.78v6.28s.03,0,.05,0c-.01,1.31.07,2.63.09,3.94.01.61.06.7.68.71.44,0,.57.19.62.6.1.97.35,1.9.87,2.74,1.06,1.7,2.59,2.84,4.38,3.66,2.78,1.28,5.75,1.73,8.77,1.88,1.43.07,2.86.04,4.29-.06,2.67-.18,5.31-.6,7.91-1.22,3.03-.73,5.97-1.73,8.79-3.04,2.62-1.21,5.12-2.65,7.37-4.48.33-.27.61-.38,1-.15.25.15.53.19.76-.04.91-.91,1.67-1.92,1.97-3.2.09-.39.24-.73.45-1.05.35-.54.66-1.1.95-1.68.36-.73.36-1.52.52-2.28v-1.74c-.09-.12-.04-.25-.05-.37ZM9.49,21.34c-.42.44-.97.53-1.63.23-.25-.11-.47.15-.74.02-.15-.08-.22-.11-.2-.29.11-1.01.2-2.01.31-3.02.07-.66.57-.28.86-.3.38-.03.17.29.16.46-.01.2-.09.41,0,.61.73-.11,1.18.09,1.47.63.28.53.19,1.24-.21,1.66ZM11.69,19.55c-.09.31-.04.67-.49.75-.2.04-.24.24-.25.43,0,.19.02.39.02.58.03.61-.15.77-.77.72-.2-.01-.19-.14-.19-.26-.03-.38-.05-.77-.07-1.16,0-.23,0-.45,0-.68-.03-.52.25-.85.69-.61.37.2.51-.07.76-.07.21,0,.38-.02.29.3ZM12.84,19.79c.01.29,0,.58,0,.87h-.01c0,.29-.03.58,0,.87.07.59-.35.47-.68.52-.43.05-.31-.27-.31-.47-.01-.58.01-1.16,0-1.73-.02-.62.47-.38.75-.45.38-.09.24.23.25.41ZM12.15,19.14c-.31.02-.31-.13-.34-.36-.06-.48.2-.53.61-.47.09.1.43-.26.44.2,0,.52-.09.6-.72.64ZM18.41,22.82c-.16,0-.32-.02-.48-.01-.38.02-.58-.1-.49-.52.06-.3-.06-.31-.34-.26-.65.12-1.12-.2-1.35-.85h0,0c-.17.04-.12.18-.1.27.08.38-.13.44-.43.51-.41.1-.58.03-.55-.43.02-.32-.05-.64-.09-.96-.02-.16-.05-.35-.27-.31-.18.03-.17.19-.15.35.05.38.08.77.13,1.15.03.22-.05.37-.27.32-.23-.06-.61.29-.69-.22-.1-.68-.18-1.37-.27-2.05-.02-.13-.02-.27.16-.28.25-.02.58-.27.74-.03.16.22.17.05.24,0,.56-.37,1.09-.19,1.26.46.09.34.12.69.17,1.04-.04-.51.03-.99.42-1.37.23-.22.54-.43.82-.31.53.21,1.04-.07,1.55.06,0,1.15-.01,2.31-.02,3.46,0,0,0,0,0,0ZM18.41,22.82s.07-.07.09-.11c0,.05-.02.09-.09.11ZM18.58,21.33s0,.05,0,.08c-.06-.13-.03-.28-.01-.41.01-.07.02-.13.03-.2,0,.18,0,.35-.01.53ZM20.11,21.9c-.1-.08-.12-.03-.18,0-.65.25-.88.18-1.26-.35.03-.62.06-1.25.1-1.87.11-.34.67-.55.98-.38.14.07.09.19.08.3-.04.42-.08.83-.12,1.25-.01.14-.03.32.17.33.19,0,.21-.16.22-.31.02-.35.05-.71.06-1.06.03-.66.52-.35.82-.37.42-.04.21.28.2.47,0,.11-.15,1.4-.2,1.72-.07.51-.44.64-.88.29ZM23.38,21.92c-1.05.38-2.03-.05-2.19-1.07,0-.01,0-.13-.01-.15.14-1.23.66-1.35,1.3-1.42.65-.07,1.06.33,1.42.79h-.04s.03,0,.03,0c-.43.34-.87.68-1.36,1.07.23.06.39.08.54-.03.48-.33.52.17.65.39.2.34-.18.36-.34.41ZM29.47,20.47c-.01.12-.02.23-.05.34-.17.51-.54.79-1.16.88-.66.1-1.16-.17-1.49-.79-.19.08-.07.22-.06.32.08.57-.12.81-.68.7-.22-.05-.36,0-.53.07-.72.29-1.54-.24-1.62-1.06-.03-.28,0-.57.02-.85h0s0,0,0,0c0,0,0,0,0,0h0c.46-.67.73-.81,1.5-.76.06-.19.01-.38-.04-.56-.07-.28-.04-.43.31-.48.64-.09.63-.12.75.52.09.47.02.96.24,1.4.1-.81.64-1.26,1.49-1.25.65,0,1.12.39,1.28.94.03.09.07.24.04.59ZM31.26,21.89c-.28.14-.58.17-.89.19-.55.04-.72-.17-.63-.72.03-.18.13-.14.24-.14.18,0,.36.02.55-.08.06-.03.05-.11,0-.14-.37-.14-.76-.18-.91-.58,0-.04-.01-.09-.02-.14-.04-.19,0-.39.12-.54.32-.41.8-.51,1.38-.48.48.02.28.39.35.6.09.31-.18.21-.33.24-.12.02-.25-.03-.35.07-.03.03-.03.08,0,.11.09.12.24.12.37.15.38.08.58.33.61.7.03.36-.16.61-.47.77ZM45.36,17.05c-.18.19-.29.21-.52.09-1.4-.72-2.61-1.7-3.76-2.76-.24-.22-.08-.31.07-.43.63-.5,1.12-1.08.99-1.96-.03-.21-.08-.41-.12-.61-.2.02-.17.18-.2.28-.78,2.29-3.15,3.95-5.47,3.79-1.39-.09-2.66-.58-3.86-1.27-.22-.12-.43-.25-.72-.41.03.97.09,1.85.24,2.71.05.28-.02.37-.27.44-1.21.35-2.45.49-3.71.54-.36.01-.48-.08-.48-.45.02-1.01,0-2.02,0-3.12-.53.31-.99.56-1.43.85-.31.21-.57.2-.87,0-.47-.3-.95-.56-1.5-.78.27.37.52.75.81,1.1.17.21.14.32-.06.5-.99.89-2.1,1.58-3.28,2.19-.25.13-.33.03-.45-.15-.69-1.07-1.27-2.2-1.84-3.33-.21-.42-.42-.85-.65-1.33-.51,2.58-2.15,4.03-4.74,4.27-1.45.14-2.89.17-4.33,0-.62-.08-.72-.21-.71-.84,0-1.56,0-3.12,0-4.68,0-.15.05-.31-.08-.5-.63.93-1.41,1.68-2.38,2.21-.35.19-.72.36-1.09.5-.19.07-.24.13-.2.34.13.71.29,1.41.49,2.11.07.26.04.36-.26.4-1.22.19-2.43.45-3.66.56-.33.03-.44-.07-.46-.41-.22-3.57-.23-7.14-.2-10.71,0-.21-.01-.39.25-.51,1.75-.77,3.55-.98,5.41-.51.91.23,1.58.82,2.08,1.59.13-.04.1-.14.1-.21.03-.81.03-.81.8-1.05,1.16-.36,2.33-.61,3.55-.56,1.12.05,2.12.38,2.92,1.19.19.19.32.18.53.05.88-.57,1.83-1,2.78-1.44.22-.11.32-.09.43.15.31.69.53,1.41.83,2.21.2-.62.21-1.18.32-1.71.04-.19.09-.39.07-.57-.07-.57.28-.75.72-.95,1.28-.55,2.54-1.15,3.9-1.77-.17.92-.31,1.76-.48,2.6-.28,1.38-.54,2.77-.92,4.13-.07.25-.05.4.26.49.95.28,1.89.61,2.8,1.02.34.15.43.11.42-.28-.04-1.29-.03-2.58-.09-3.86-.02-.41.12-.55.5-.63.96-.2,1.92-.38,2.89-.54.38-.06.42.06.44.38.08,1.59.19,3.18.29,4.77,0,.04.02.08.04.14.16-.13.2-.31.27-.46,1.09-2.27,2.21-4.53,3.46-6.72.24-.42.48-.48.91-.3.97.42,1.95.83,2.86,1.37,1.02.6,1.96,1.29,2.56,2.42.3-.81.76-1.44,1.26-2.05.12-.14.21-.24.43-.14,1.23.55,2.34,1.31,3.51,1.97-.1.2-.25.26-.37.36-.92.73-1.11,1.36-.74,2.5.28.87.74,1.67.94,2.57.43,1.95.16,3.7-1.26,5.19Z"/>
    <path class="cls-1" d="M30.94,14.33c-.2-2.79-.4-5.58-.58-8.37-.02-.34-.16-.37-.41-.32-.46.08-.91.19-1.37.25-.5.06-.63.28-.61.78.04,1.59.02,3.18.02,4.79-.07-.03-.15-.05-.22-.08-1.41-.7-2.89-1.22-4.4-1.65-.37-.11-.41-.25-.33-.57.27-1.06.54-2.11.79-3.17.21-.88.43-1.75.51-2.72-.98.36-1.88.74-2.75,1.18-.17.08-.21.19-.24.37-.19,1.64-.49,3.27-.79,4.93-.2-.12-.21-.29-.26-.44-.41-1.16-.83-2.32-1.22-3.49-.1-.3-.21-.36-.51-.22-.65.29-1.25.66-1.85,1.03-.35.21-.43.39-.24.8,1.22,2.6,2.42,5.2,3.71,7.77.22.44.47.88.71,1.31.07.13.13.28.36.15.76-.42,1.51-.84,2.18-1.41.19-.16.14-.25.03-.43-.59-.91-1.05-1.89-1.56-2.87.2-.06.3.06.42.13.95.56,1.91,1.11,2.85,1.7.29.18.51.17.78-.01.67-.43,1.35-.83,2.03-1.25.1.09.07.2.07.29.02,1.08.04,2.16.03,3.23,0,.36.11.47.48.44.74-.05,1.47-.16,2.19-.31.25-.05.36-.12.31-.41-.08-.47-.11-.96-.15-1.44Z"/>
    <path class="cls-1" d="M44.9,9.69c-.35-.79-.43-1.59-.1-2.43.12-.31.6-.52.4-.84-.17-.27-.58-.38-.88-.56-.04-.02-.08-.05-.13-.07-1.26-.73-1.38-.68-2,.68-.63,1.4-.4,2.76.16,4.1.53,1.27.5,2.44-.63,3.43.87.81,1.79,1.5,2.81,2.07.14.08.23.11.36-.05.73-.88,1.08-1.87.98-3.03-.09-1.17-.5-2.24-.97-3.3Z"/>
  </g>
  <path class="cls-1" d="M17.43,12.15c-.23-1.4-1.07-2.12-2.77-2.44.22-.18.38-.3.53-.43.78-.68.87-1.7.22-2.5-.45-.56-1.05-.89-1.74-1.04-1.41-.31-2.77-.01-4.13.37-.28.08-.36.2-.36.5,0,3.09,0,6.18,0,9.27,0,.33.1.45.42.46,1.17.05,2.35.07,3.52,0,1.06-.06,2.06-.34,2.91-1.01,1.03-.81,1.62-1.84,1.4-3.17ZM12.96,7.41c.3.08.59.2.64.56.05.36-.19.56-.45.74-.31.21-.68.28-1.03.36-.17.04-.24-.04-.24-.2,0-.21,0-.42,0-.62-.04-.87.23-1.08,1.08-.84ZM13.98,12.9c-.48.39-1.05.52-1.72.57-.34.12-.39-.09-.38-.43.02-.51.03-1.03,0-1.54-.02-.31.11-.4.38-.4.55,0,1.09.03,1.58.31.64.37.71,1.02.14,1.49Z"/>
  <path class="cls-1" d="M39.14,5.2c-1-.64-2.07-1.16-3.16-1.61-.22-.09-.34-.05-.45.16-.48.91-.99,1.8-1.46,2.71-.95,1.85-1.93,3.69-2.7,5.63-.1.24-.11.4.13.57,1.05.72,2.16,1.33,3.4,1.64,1.45.37,2.85.34,4.13-.6,1.52-1.11,2.26-2.58,2.22-4.27.04-1.92-.65-3.28-2.13-4.23ZM36.72,10.97c-.32,0-.73-.11-1.15-.25-.23-.07-.3-.17-.18-.41.55-1.1,1.09-2.2,1.62-3.31.14-.3.29-.37.58-.17.78.51,1.31,1.18,1.4,2.13.11,1.24-.83,2.11-2.28,2.02Z"/>
  <path class="cls-1" d="M6,5.77c-1.45-.36-2.89-.2-4.3.3-.27.09-.32.25-.32.51,0,1.27,0,2.54,0,3.81-.01,0-.02,0-.04,0,.07,1.88.14,3.76.21,5.64,0,.23.05.34.34.29.74-.14,1.49-.24,2.23-.34.28-.04.32-.14.26-.41-.16-.67-.25-1.35-.41-2.02-.07-.33,0-.46.35-.54,1.45-.35,2.59-1.18,3.43-2.39,1.26-1.83.38-4.29-1.75-4.82ZM5.93,9c-.48.59-1.17.81-1.86,1.03-.21.07-.19-.1-.2-.22-.04-.54-.05-1.09-.13-1.63-.06-.47.08-.67.56-.62.08,0,.16,0,.29,0,.38-.03.79.04,1.15.28.43.29.52.76.2,1.16Z"/>
</svg>