<?xml version="1.0" encoding="UTF-8"?>
<svg id="Camada_1" data-name="Camada 1" xmlns="http://www.w3.org/2000/svg" viewBox="0 0 171.06 54.84">
  <defs>
    <style>
      .cls-1 {
        fill: #fff;
        stroke-width: 0px;
      }
    </style>
  </defs>
  <path class="cls-1" d="M35.43,11.24c.05-.02.1-.03.16-.05.05,1.24.17,2.48-.16,3.7v-3.65Z"/>
  <g>
    <path class="cls-1" d="M91.42,40.04c-.57.02-1.02.25-1.04.89-.02.51.27.76.87.75.45-.07.94-.21.96-.88.01-.52-.29-.77-.78-.75Z"/>
    <path class="cls-1" d="M85.72,40.82c-.56.02-.91.3-.93.85-.03.5.27.74.77.75.41,0,.66-.17.82-.45.14-.25.16-.56.02-.81-.12-.22-.32-.35-.67-.34Z"/>
    <path class="cls-1" d="M80.88,40.53c-.68-.31-1.49.03-1.21.95.44-.23.8-.49,1.21-.95Z"/>
    <path class="cls-1" d="M52.29,40.25c-.58-.01-1.03.25-1.06.84-.02.51.39.75.99.75.43-.04.87-.21.91-.79.03-.54-.32-.78-.84-.79Z"/>
    <path class="cls-1" d="M69.51,40.73c-.53.05-1.02.27-1.01.93,0,.51.34.77.82.73.55-.05.97-.32,1.04-.96-.06-.48-.38-.74-.84-.7Z"/>
    <path class="cls-1" d="M66.79,42.57c-.07-.13-.14-.25-.22-.38-.03.18.08.29.22.38Z"/>
    <path class="cls-1" d="M133.81,15.88c-.09-1.41-.27-2.8-1.02-4.05-1.08-1.81-2.44-3.38-4.09-4.67-3.03-2.36-6.48-3.86-10.17-4.85-6.43-1.72-12.97-2.15-19.61-1.76-4.17.25-8.29.74-12.37,1.52-7.26,1.39-14.28,3.6-21.03,6.61-.65.29-1.27.35-1.95.18-.96-.24-1.94-.38-2.94-.38-2.56-.02-5.02.53-7.43,1.33-1.11.37-2.16.56-3.18-.24-.27-.22-.63-.31-.97-.41-4.41-1.29-8.67-.81-12.8,1.15-.46.22-.69.55-.72,1.04-.06,1.18.12,2.37-.1,3.55v12.5s.06,0,.1,0c-.02,2.62.13,5.23.18,7.84.02,1.22.12,1.4,1.36,1.42.87.01,1.14.37,1.23,1.2.2,1.93.7,3.77,1.74,5.45,2.1,3.39,5.15,5.65,8.71,7.29,5.54,2.55,11.45,3.45,17.46,3.74,2.84.14,5.69.08,8.55-.11,5.32-.36,10.56-1.19,15.74-2.43,6.03-1.45,11.88-3.45,17.5-6.05,5.22-2.42,10.19-5.27,14.67-8.91.65-.53,1.22-.75,1.99-.3.5.29,1.05.39,1.51-.08,1.81-1.82,3.33-3.82,3.93-6.38.18-.77.48-1.45.9-2.1.71-1.07,1.31-2.19,1.89-3.34.72-1.45.72-3.02,1.03-4.55v-3.46c-.17-.23-.08-.49-.09-.74ZM54.33,42.9c-.83.88-1.93,1.06-3.25.46-.5-.23-.93.3-1.47.03-.3-.15-.45-.21-.41-.58.22-2,.39-4.01.61-6.01.14-1.3,1.13-.55,1.7-.6.76-.06.34.57.32.91-.03.41-.17.81-.02,1.22,1.45-.21,2.35.17,2.93,1.26.56,1.05.38,2.46-.42,3.31ZM58.71,39.34c-.17.61-.09,1.32-.98,1.48-.4.07-.48.49-.49.85,0,.38.03.77.05,1.15.05,1.22-.3,1.53-1.52,1.44-.4-.03-.37-.28-.39-.52-.05-.77-.09-1.53-.14-2.3,0-.45.02-.9,0-1.34-.05-1.04.5-1.7,1.38-1.22.74.41,1.02-.14,1.51-.14.43,0,.76-.03.58.59ZM61,39.81c.03.57,0,1.15,0,1.72h-.02c0,.58-.06,1.16.01,1.72.14,1.17-.7.94-1.35,1.03-.86.11-.61-.53-.62-.94-.02-1.15.02-2.3-.02-3.45-.04-1.24.93-.77,1.49-.89.76-.17.48.46.5.81ZM59.63,38.52c-.61.03-.62-.26-.67-.73-.12-.96.39-1.06,1.22-.93.19.2.87-.51.88.39.02,1.04-.19,1.2-1.43,1.27ZM72.08,45.84c-.32,0-.64-.04-.95-.02-.75.04-1.16-.2-.98-1.04.13-.61-.12-.62-.67-.52-1.29.24-2.23-.4-2.68-1.7h0,0c-.33.08-.24.37-.2.55.17.75-.25.87-.86,1.01-.82.19-1.15.06-1.09-.86.04-.63-.1-1.27-.17-1.9-.04-.33-.1-.7-.54-.62-.36.06-.34.38-.3.69.1.76.16,1.52.26,2.28.06.44-.1.74-.55.63-.46-.11-1.22.59-1.37-.43-.2-1.36-.36-2.72-.53-4.08-.03-.27-.04-.54.32-.57.51-.04,1.15-.53,1.48-.07.31.43.34.1.49,0,1.11-.75,2.16-.38,2.51.92.18.67.23,1.37.35,2.06-.08-1.02.06-1.98.84-2.73.45-.43,1.07-.85,1.63-.62,1.05.42,2.07-.15,3.08.11-.01,2.3-.03,4.6-.04,6.9,0,0,0,0,0,0ZM72.08,45.84c.08-.07.14-.15.18-.23,0,.1-.04.19-.18.23ZM72.41,42.89c0,.05,0,.11-.01.16-.12-.26-.06-.56-.02-.82.02-.13.04-.26.06-.4.01.35,0,.7-.03,1.06ZM75.46,44.01c-.19-.15-.24-.06-.36,0-1.3.49-1.76.36-2.51-.7.06-1.24.13-2.49.19-3.73.22-.67,1.33-1.1,1.96-.76.27.15.17.37.15.59-.08.83-.16,1.65-.23,2.48-.02.29-.06.64.35.66.38.01.42-.32.44-.62.04-.7.09-1.4.12-2.11.05-1.32,1.04-.69,1.63-.74.83-.07.42.56.41.94,0,.22-.3,2.79-.39,3.42-.14,1.02-.88,1.27-1.75.58ZM81.97,44.05c-2.1.76-4.03-.1-4.37-2.13,0-.03-.01-.27-.02-.3.29-2.44,1.3-2.69,2.58-2.82,1.29-.13,2.11.66,2.83,1.58l-.07.03.06-.02c-.87.68-1.73,1.36-2.7,2.13.45.11.77.15,1.07-.05.97-.65,1.03.34,1.29.77.41.68-.36.71-.67.82ZM94.09,41.16c-.02.23-.03.46-.11.68-.34,1.01-1.08,1.56-2.32,1.75-1.32.2-2.31-.33-2.96-1.58-.37.15-.15.43-.12.65.15,1.13-.23,1.62-1.35,1.38-.45-.1-.71,0-1.05.14-1.44.58-3.07-.48-3.22-2.11-.05-.56.02-1.13.03-1.69h0s0,0,0,0c0,0,0,0,0,0h0c.91-1.33,1.46-1.61,2.99-1.51.12-.38.02-.75-.08-1.12-.14-.55-.08-.85.62-.96,1.27-.19,1.25-.24,1.49,1.03.17.93.04,1.91.48,2.79.21-1.6,1.28-2.51,2.96-2.49,1.29.01,2.23.78,2.55,1.86.06.19.14.47.08,1.17ZM97.66,44c-.55.29-1.16.34-1.77.38-1.1.07-1.43-.34-1.24-1.43.06-.36.26-.27.48-.28.35-.01.72.03,1.1-.17.11-.06.1-.23-.01-.27-.73-.28-1.51-.36-1.82-1.15-.01-.09-.03-.19-.05-.28-.07-.38,0-.78.24-1.08.63-.81,1.6-1.01,2.74-.97.96.03.56.77.69,1.19.19.62-.35.42-.65.47-.23.04-.5-.05-.69.14-.06.06-.06.15-.02.22.17.25.48.23.73.29.76.17,1.16.65,1.22,1.4.06.72-.32,1.21-.94,1.54ZM125.72,34.37c-.35.37-.57.42-1.03.19-2.79-1.43-5.19-3.38-7.49-5.49-.49-.45-.16-.62.14-.86,1.25-1,2.23-2.14,1.98-3.9-.06-.41-.16-.81-.24-1.22-.4.03-.33.35-.41.56-1.55,4.55-6.26,7.85-10.89,7.54-2.76-.19-5.29-1.16-7.68-2.52-.43-.25-.86-.5-1.43-.82.06,1.93.19,3.68.48,5.4.1.55-.03.73-.53.87-2.41.69-4.88.98-7.38,1.08-.71.03-.96-.16-.95-.9.04-2.01.01-4.02.01-6.21-1.06.62-1.98,1.12-2.84,1.69-.61.41-1.13.39-1.73,0-.93-.59-1.9-1.12-2.98-1.56.53.73,1.04,1.48,1.62,2.18.35.42.28.63-.12.99-1.97,1.77-4.18,3.15-6.53,4.35-.49.25-.66.06-.89-.3-1.38-2.12-2.52-4.37-3.66-6.63-.43-.84-.83-1.7-1.29-2.65-1.02,5.14-4.28,8.02-9.43,8.51-2.88.27-5.75.34-8.63-.01-1.24-.15-1.42-.42-1.42-1.66,0-3.11.01-6.22,0-9.32,0-.3.11-.63-.16-.99-1.25,1.86-2.81,3.34-4.75,4.39-.7.38-1.43.71-2.18.99-.38.14-.47.26-.39.68.27,1.41.58,2.82.97,4.2.15.52.07.71-.52.81-2.43.38-4.84.89-7.29,1.11-.66.06-.87-.14-.91-.81-.44-7.1-.45-14.21-.39-21.33,0-.42-.02-.78.49-1.01,3.48-1.53,7.07-1.96,10.77-1.02,1.81.46,3.14,1.64,4.15,3.17.26-.08.2-.27.2-.41.05-1.62.05-1.61,1.59-2.08,2.3-.71,4.63-1.22,7.07-1.11,2.22.1,4.21.76,5.8,2.36.38.38.64.37,1.05.1,1.75-1.13,3.64-1.99,5.53-2.87.45-.21.63-.18.86.31.62,1.37,1.05,2.8,1.66,4.41.41-1.23.41-2.35.63-3.41.08-.37.19-.77.14-1.14-.13-1.13.55-1.5,1.44-1.88,2.54-1.1,5.05-2.29,7.75-3.53-.34,1.82-.61,3.5-.96,5.17-.57,2.75-1.08,5.51-1.82,8.22-.14.49-.09.79.52.97,1.9.55,3.77,1.22,5.57,2.04.68.31.86.22.84-.55-.08-2.56-.06-5.13-.17-7.69-.03-.82.24-1.1,1-1.26,1.91-.4,3.82-.76,5.74-1.08.75-.12.83.12.87.76.17,3.16.38,6.33.59,9.49,0,.08.04.16.08.28.32-.26.39-.61.53-.91,2.16-4.53,4.4-9.01,6.89-13.37.48-.84.95-.96,1.81-.59,1.94.83,3.87,1.66,5.69,2.73,2.03,1.2,3.91,2.56,5.1,4.81.6-1.61,1.5-2.87,2.51-4.07.24-.29.42-.48.86-.28,2.45,1.1,4.66,2.62,6.99,3.91-.19.39-.5.52-.74.72-1.82,1.46-2.21,2.71-1.48,4.97.55,1.73,1.47,3.32,1.87,5.12.86,3.88.31,7.36-2.51,10.33Z"/>
    <path class="cls-1" d="M97.02,28.94c-.4-5.55-.8-11.11-1.15-16.67-.04-.68-.31-.73-.82-.64-.91.17-1.81.39-2.73.49-.99.11-1.25.56-1.22,1.56.08,3.16.03,6.32.03,9.53-.15-.05-.3-.1-.43-.16-2.81-1.4-5.76-2.43-8.76-3.29-.74-.21-.81-.49-.65-1.13.54-2.1,1.07-4.21,1.57-6.32.42-1.75.85-3.49,1.01-5.41-1.94.72-3.73,1.47-5.47,2.34-.33.17-.43.39-.47.74-.38,3.27-.98,6.5-1.57,9.81-.39-.24-.41-.58-.51-.87-.82-2.31-1.65-4.62-2.44-6.95-.2-.6-.41-.71-1.01-.44-1.29.58-2.49,1.3-3.69,2.04-.69.43-.85.79-.47,1.59,2.44,5.17,4.82,10.36,7.39,15.47.45.88.93,1.75,1.41,2.62.15.27.26.56.71.31,1.52-.83,3.01-1.68,4.35-2.8.38-.32.28-.51.06-.85-1.18-1.81-2.1-3.76-3.1-5.71.39-.12.61.12.84.25,1.9,1.11,3.81,2.21,5.68,3.38.58.36,1.01.33,1.56-.02,1.33-.86,2.7-1.66,4.04-2.48.21.18.15.39.15.57.03,2.15.08,4.29.06,6.44,0,.72.22.93.95.88,1.47-.11,2.92-.32,4.36-.61.5-.1.71-.24.61-.82-.16-.94-.22-1.91-.29-2.86Z"/>
    <path class="cls-1" d="M124.83,19.7c-.69-1.57-.85-3.17-.2-4.84.23-.61,1.2-1.04.8-1.68-.33-.53-1.16-.75-1.76-1.11-.08-.05-.17-.09-.25-.14-2.51-1.44-2.75-1.35-3.98,1.35-1.26,2.78-.8,5.49.31,8.17,1.05,2.53,1,4.86-1.26,6.82,1.73,1.61,3.57,2.98,5.59,4.12.29.16.47.21.72-.09,1.44-1.76,2.14-3.73,1.96-6.03-.19-2.34-.99-4.46-1.93-6.57Z"/>
  </g>
  <path class="cls-1" d="M70.13,24.61c-.46-2.8-2.13-4.22-5.51-4.86.43-.35.76-.6,1.06-.87,1.54-1.35,1.72-3.38.43-4.97-.9-1.11-2.09-1.78-3.47-2.08-2.81-.62-5.52-.02-8.21.74-.56.16-.72.41-.72.99.02,6.15.02,12.3-.02,18.45,0,.66.19.89.83.92,2.34.1,4.68.14,7.01.01,2.11-.12,4.09-.69,5.79-2.01,2.06-1.61,3.23-3.66,2.79-6.32ZM61.24,15.16c.59.17,1.18.4,1.28,1.12.1.71-.38,1.12-.89,1.47-.61.43-1.35.55-2.06.72-.34.08-.48-.07-.48-.39,0-.41,0-.83,0-1.24-.07-1.74.45-2.15,2.14-1.68ZM63.26,26.1c-.95.78-2.09,1.04-3.43,1.13-.67.24-.78-.19-.75-.86.04-1.02.05-2.05,0-3.07-.04-.61.23-.8.75-.8,1.09,0,2.17.07,3.15.63,1.28.73,1.42,2.03.28,2.97Z"/>
  <path class="cls-1" d="M113.35,10.78c-1.99-1.28-4.11-2.3-6.3-3.2-.45-.18-.67-.09-.89.32-.96,1.8-1.98,3.57-2.91,5.39-1.89,3.69-3.83,7.35-5.37,11.21-.19.49-.22.8.27,1.12,2.1,1.43,4.31,2.64,6.78,3.27,2.89.74,5.67.67,8.23-1.19,3.03-2.21,4.5-5.13,4.43-8.51.07-3.82-1.28-6.53-4.24-8.42ZM108.54,22.25c-.64,0-1.46-.23-2.28-.49-.45-.14-.6-.33-.36-.82,1.1-2.19,2.17-4.39,3.23-6.6.28-.59.57-.73,1.16-.34,1.54,1.02,2.62,2.34,2.79,4.23.23,2.47-1.66,4.21-4.53,4.01Z"/>
  <path class="cls-1" d="M47.37,11.91c-2.89-.72-5.76-.39-8.57.59-.53.19-.65.5-.64,1.01.02,2.53,0,5.06,0,7.58-.02,0-.05,0-.07,0,.14,3.74.28,7.48.41,11.22.02.46.1.68.68.57,1.47-.28,2.96-.48,4.45-.68.55-.07.64-.27.51-.81-.32-1.33-.51-2.69-.81-4.03-.15-.66,0-.92.69-1.08,2.88-.7,5.16-2.34,6.83-4.77,2.52-3.64.76-8.54-3.48-9.6ZM47.25,18.34c-.96,1.17-2.34,1.61-3.71,2.06-.41.13-.38-.2-.4-.45-.08-1.08-.11-2.17-.26-3.24-.13-.93.16-1.34,1.11-1.23.16.02.32,0,.57,0,.76-.05,1.57.07,2.29.56.86.58,1.04,1.51.39,2.3Z"/>
</svg>