<?xml version="1.0" encoding="UTF-8"?>
<svg id="Camada_1" data-name="Camada 1" xmlns="http://www.w3.org/2000/svg" viewBox="0 0 38.88 28.83">
  <defs>
    <style>
      .cls-1 {
        fill: #fff;
        stroke-width: 0px;
      }
    </style>
  </defs>
  <path class="cls-1" d="M17.44,18.09c.47-.83.58-1.65.78-2.44.1-.39.2-.79.31-1.17.07-.23.2-.44.47-.42.3.03.37.29.38.54.03.52.06,1.04.09,1.55.01.21-.01.43.19.69.5-1.06,1.28-1.95.97-3.21-.07-.29-.13-.59.13-.82.12-.11.27-.09.41,0,.31.18.28.49.27.78-.01.71.44,1.09,1.14.94.51-.11.93-.3,1.04-.91.08-.45.33-.85.62-1.2.4-.47.99-.6,1.43-.31.44.28.54.78.24,1.38-.33.66-.85,1.11-1.58,1.25-.37.07-.47.25-.47.59,0,.44.03.88.21,1.29.3.66.81.83,1.42.46.78-.47,1.33-1.19,1.86-1.9.53-.71,1.06-1.43,1.29-2.32.11-.41.36-.76.69-1.04.39-.33.92-.37,1.31-.09.34.25.44.69.24,1.19-.31.76-.87,1.25-1.67,1.41-.32.07-.43.2-.42.51,0,.46.01.91.18,1.34.25.62.73.82,1.33.53.65-.32,1.07-.88,1.54-1.39.02-.02.04-.05.06-.08.96-1.03,1.49-2.17,1.21-3.64-.15-.8-.08-1.65-.11-2.48,0-.17.04-.35-.27-.3-.85.16-1.69.31-2.48.68-.22.1-.45.18-.5.48-.03.16-.18.24-.34.21-.21-.04-.22-.22-.2-.39.06-.47.42-.67.8-.83.83-.35,1.7-.54,2.58-.66.34-.05.41-.18.42-.49.02-1.23.09-2.46.38-3.67.08-.32.2-.62.37-.9.16-.26.4-.37.71-.32.29.05.39.28.43.53.12.7.03,1.39-.11,2.08-.15.72-.37,1.41-.68,2.08-.06.13-.19.28-.1.41.09.13.27.05.41.03,1.11-.13,2.23-.19,3.35-.16.3,0,.58.07.85.19.17.08.24.21.22.39-.02.2-.15.33-.33.39-.19.07-.31-.03-.36-.22-.04-.18-.18-.16-.31-.17-1.35-.07-2.69.04-4.03.2-.26.03-.26.19-.26.38,0,1.93.13,3.86.34,5.78.14,1.31.28,2.61.71,3.86.15.44.21.97.79,1.14.14.04.15.21.11.34-.07.19-.24.21-.41.18-.39-.08-.58-.4-.74-.72-.37-.75-.55-1.56-.69-2.37-.16-.94-.28-1.88-.43-2.85-.44.56-.84,1.1-1.28,1.62-.4.48-.85.9-1.4,1.19-.88.46-1.67.19-2.09-.71-.2-.43-.27-.9-.28-1.45-.37.46-.7.88-1.02,1.29-.31.38-.66.72-1.05,1.01-1.3.98-2.53.47-2.78-1.15-.04-.29-.07-.58-.07-.87,0-.3-.11-.37-.38-.28-.48.16-.97.17-1.41-.09-.24-.14-.31-.09-.4.16-.18.49-.38.96-.61,1.43-.11.23-.26.45-.43.65-.41.48-.85.39-1.05-.21-.08-.23-.13-.46-.2-.69,0-.02-.05-.03-.11-.07-.04.18-.09.35-.12.52-.08.43-.19.86-.38,1.25-.16.34-.36.7-.8.69-.45-.02-.59-.4-.71-.76-.21-.6-.32-1.22-.35-1.86-.02-.34-.07-.53-.47-.28-.65.42-1.33.8-2,1.2-.14.08-.29.13-.15.36.99,1.66.68,3.32-.12,4.92-.79,1.58-2.02,2.82-3.4,3.89-1.6,1.24-3.35,2.23-5.37,2.64-.39.08-.78.08-1.16.05-1.15-.09-1.76-.95-1.47-2.08.32-1.23,1.02-2.24,1.88-3.14,2.01-2.1,4.37-3.76,6.75-5.41.48-.33.97-.65,1.47-.95.33-.2.26-.33-.02-.5-.95-.58-2.01-.8-3.08-.99-1.85-.33-3.74-.37-5.58-.79-.49-.11-.98-.23-1.45-.42C.39,13.81-.34,12.29.15,10.36c.58-2.32,1.75-4.31,3.33-6.09,1.4-1.58,2.95-2.96,4.9-3.85.51-.23,1.04-.37,1.59-.42,1.02-.09,1.89.48,2.26,1.49.44,1.2.3,2.43.12,3.66-.02.17-.13.31-.33.29-.26-.03-.25-.23-.22-.4.12-.68.14-1.36.12-2.04-.05-2.14-1.19-2.92-3.17-2.11-1.74.7-3.12,1.91-4.38,3.26-1.64,1.75-2.95,3.7-3.59,6.04-.6,2.17.27,3.61,2.47,4.12,1.76.41,3.56.51,5.34.78,1.27.19,2.54.36,3.7.98.09.05.19.07.25.14.51.56.98.36,1.51,0,.61-.42,1.27-.78,1.92-1.15.23-.13.33-.27.31-.54-.02-.37,0-.75.11-1.11.06-.19.14-.37.33-.46.12-.06.25-.06.36.04.08.07.12.19.06.26-.52.69-.29,1.48-.25,2.21.05.85.13,1.71.56,2.62ZM13.77,19.28c.03-.38-.11-.9-.36-1.4-.17-.34-.34-.45-.71-.21-1.05.68-2.1,1.35-3.11,2.09-1.82,1.34-3.66,2.64-5.19,4.32-.66.73-1.21,1.52-1.54,2.46-.41,1.17.18,1.89,1.42,1.74.58-.07,1.16-.19,1.7-.4,2.54-.97,4.66-2.53,6.34-4.67.86-1.1,1.42-2.32,1.44-3.94ZM34.32,3.54c-.63,1.14-.53,2.41-.66,3.64.51-1.16.86-2.35.66-3.64ZM28.96,13.77c.65-.09,1.05-.43,1.35-.91.14-.22.26-.48,0-.69-.27-.22-.5-.03-.67.16-.37.38-.53.87-.68,1.45ZM24.27,14.18c.53-.18.97-.48,1.21-1.02.09-.2.14-.42-.08-.57-.2-.13-.41-.06-.58.08-.41.36-.56.85-.72,1.35-.04.12.02.18.17.16Z"/>
  <path class="cls-1" d="M31.37,20.36c.02.13.04.29.06.45.02.14,0,.27-.17.29-.16.02-.24-.09-.25-.24-.02-.21,0-.42-.03-.63-.03-.18-.03-.4-.27-.47-.12-.03-.24-.06-.18-.21.05-.14.2-.23.31-.16.28.18.47.03.71-.09.34-.16.66.04.8.41.12.32-.02.73.34.97.07.05,0,.15-.08.19-.12.07-.25.06-.36-.03-.17-.15-.18-.36-.21-.58-.04-.24.03-.61-.34-.58-.38.02-.3.39-.33.68Z"/>
  <path class="cls-1" d="M25.42,20.92c-.01-.44.15-.71.47-.86.29-.14.57-.08.81.13.16.14.23.32.2.52-.03.24-.24.23-.4.28-.08.02-.16.02-.24.03-.13.03-.35,0-.31.2.04.18.23.21.4.17.05-.01.09-.04.13-.06.14-.05.29-.34.43-.08.12.22-.13.34-.29.43-.58.32-1.2-.12-1.21-.76ZM26.06,20.73c.15-.03.36.02.41-.16.04-.14-.13-.21-.26-.21-.18,0-.33.08-.36.25-.03.15.12.1.21.12Z"/>
  <path class="cls-1" d="M28.49,20.78c.21.33.46.29.73.17.11-.05.23-.17.34-.01.11.17-.03.28-.15.35-.35.21-.71.23-1.04-.03-.32-.25-.41-.84-.2-1.2.22-.38.56-.47.96-.37.26.06.41.25.42.53.02.3-.18.39-.42.44-.2.05-.4.08-.64.12ZM29.14,20.21c0-.15-.1-.21-.22-.22-.19-.01-.35.07-.43.25-.05.13.04.18.15.17.19,0,.39,0,.5-.21Z"/>
  <path class="cls-1" d="M16.97,23.04c-.11-.04-.26-.07-.38-.14-.13-.07-.25-.2-.16-.36.11-.2.24-.08.35.02.09.08.2.12.31.1.11-.02.24-.04.25-.18,0-.13-.12-.14-.21-.16-.08-.02-.16-.02-.24-.04-.26-.06-.51-.15-.56-.46-.04-.24.09-.4.3-.5.29-.13.59-.2.87.02.08.06.14.14.1.25-.06.14-.17.13-.28.07-.1-.06-.21-.09-.32-.07-.1.01-.2.05-.2.16,0,.1.1.11.18.13.09.02.19.04.28.06.28.06.57.14.54.5-.02.32-.27.46-.56.52-.08.02-.16.03-.27.05Z"/>
  <path class="cls-1" d="M20.78,20.73c.37.6.64.3.93-.14.05-.08.21.05.2.18,0,.09-.03.2-.09.27-.3.39-.13.65.22.87.12.07.3.15.17.33-.14.19-.3.07-.41-.05-.28-.33-.49-.36-.67.1-.06.14-.21.31-.38.22-.21-.12-.05-.3.05-.4.33-.36.27-.65-.11-.91-.1-.07-.2-.18-.16-.33.02-.09.09-.13.25-.13Z"/>
  <path class="cls-1" d="M24.07,22.09c-.37-.01-.48-.23-.6-.51-.12-.3.08-.74-.39-.9-.08-.03-.03-.16.03-.21.18-.13.21-.31.19-.51-.01-.13.04-.23.18-.24.15,0,.2.1.2.22,0,.27.05.45.38.34.08-.03.16.02.19.11.03.12-.04.2-.14.22-.44.07-.37.38-.3.66.06.24.08.55.49.4.12-.05.19.06.16.17-.06.21-.25.23-.39.26Z"/>
  <path class="cls-1" d="M18.9,21.42c-.02-.26-.03-.43.16-.47.19-.03.23.12.26.28.06.38.12.76.17,1.15.02.13.03.27-.15.3-.17.03-.23-.09-.25-.23-.07-.38-.14-.76-.18-1.03Z"/>
  <path class="cls-1" d="M19.2,20.32c0,.17-.1.23-.23.25-.16.02-.22-.08-.23-.23,0-.13.05-.21.19-.21.14,0,.25.04.28.19Z"/>
</svg>