<?xml version="1.0" encoding="UTF-8"?>
<svg id="Camada_1" data-name="Camada 1" xmlns="http://www.w3.org/2000/svg" viewBox="0 0 113.24 15.64">
  <defs>
    <style>
      .cls-1 {
        fill: #fff;
        stroke-width: 0px;
      }
    </style>
  </defs>
  <path class="cls-1" d="M113.24,11.32c-.19.21-.45.39-.56.63-.78,1.7-2.13,2.56-3.95,2.64-1.47.06-2.96.07-4.43,0-2.41-.11-4.06-1.8-4.12-4.15,1.03.01,2.17-.57,2.77.98.16.41,1.04.71,1.62.76,1.31.11,2.63.06,3.95.02,1.25-.04,2.07-.81,2.07-1.87,0-1.03-.86-1.82-2.1-1.85-1.52-.03-3.03,0-4.55,0-2.41-.02-3.97-1.48-3.96-3.69.01-2.23,1.54-3.65,3.98-3.67,1.56-.01,3.12-.05,4.67.02,2.13.09,3.54,1.57,3.51,3.62-.99-.03-2.11.59-2.74-.83-.11-.24-.7-.35-1.07-.36-1.48-.04-2.95-.02-4.43-.02-.86,0-1.53.31-1.51,1.29.03.96.68,1.27,1.55,1.26,1.4-.01,2.79.01,4.19,0,2.17-.03,3.78.8,4.62,2.9.07.18.32.29.48.43v1.92Z"/>
  <path class="cls-1" d="M2.66,15.64c-1.03-1.1-.64-1.9.4-2.8,1.38-1.19,2.64-2.53,3.92-3.84.58-.59,1.04-.57,1.6,0,1.54,1.55,3.07,3.13,4.68,4.6,1.01.92-.25,1.35-.28,2.03h-1.44c-1.21-1.33-2.42-2.66-3.78-4.15-1.33,1.51-2.49,2.83-3.65,4.15h-1.44Z"/>
  <path class="cls-1" d="M51.17,14.47h-2.25V.81c.64.34,1.11.52,1.5.81,1.42,1.04,2.84,2.08,4.2,3.19.62.51,1.07.45,1.66-.03,1.44-1.15,2.91-2.25,4.39-3.34.3-.22.72-.27,1.08-.39.1.36.3.72.3,1.08.02,4.07.01,8.15.01,12.32h-2.29V5.07c-1.28.97-2.35,1.7-3.32,2.54-.75.65-1.32.62-2.06-.02-.95-.82-2-1.53-3.21-2.45v9.33Z"/>
  <path class="cls-1" d="M73.5,5.54c0,1.07,0,1.77,0,2.47,0,1.6,0,3.2,0,4.8.01,2.02,0,2.03-2.19,1.67V.62c3.54,3.11,6.88,6.05,10.48,9.21V1.14h2.28v13.73c-3.58-3.16-6.93-6.11-10.58-9.33Z"/>
  <path class="cls-1" d="M100.14,14.53c-.64,0-1.08-.05-1.5,0-.8.1-1.2-.24-1.56-.95-1.25-2.54-2.58-5.04-3.89-7.56-.1-.2-.24-.38-.45-.7-1.35,2.6-2.62,5.07-3.91,7.54q-.98,1.88-3.3,1.53c.1-.26.17-.51.29-.73,1.99-3.87,3.97-7.74,6-11.59.22-.42.66-.71,1-1.06.32.33.73.61.93.99,2.02,3.85,4.01,7.72,6,11.59.12.24.21.5.39.93Z"/>
  <path class="cls-1" d="M32.71,14.38c2.21-4.28,4.37-8.48,6.55-12.65.51-.96,1.07-1,1.55-.08,2.21,4.2,4.37,8.43,6.55,12.66-1.96.58-2.39.41-3.26-1.24-1.31-2.51-2.6-5.03-4.03-7.78-.34.63-.6,1.09-.84,1.55-1.07,2.06-2.12,4.12-3.19,6.18-.92,1.77-1.03,1.81-3.34,1.37Z"/>
  <path class="cls-1" d="M34.86,1.28v2.2c-.97,0-1.88,0-2.79,0-2.36,0-4.71.03-7.07-.01-.97-.02-1.35.34-1.33,1.34.05,2.8.02,5.59.02,8.39,0,.43,0,.86,0,1.35h-2.31c-.03-.35-.08-.65-.08-.96,0-3.71,0-7.43-.01-11.14,0-.76.09-1.35,1.06-1.34,4.07.02,8.14.02,12.21.03.07,0,.14.06.3.14Z"/>
  <path class="cls-1" d="M7.96,3.91c1.05-1.11,2.02-2.27,3.15-3.26.41-.36,1.26-.56,1.77-.41.93.29.99,1.03.29,1.73-1.52,1.52-3.07,3.01-4.58,4.55-.64.66-1.13.51-1.7-.08-1.42-1.45-2.88-2.86-4.32-4.3-.44-.44-1.04-.87-.33-1.58.67-.67,1.36-.81,2.09-.11,1,.97,1.99,1.96,2.99,2.93.14.13.3.24.65.52Z"/>
  <path class="cls-1" d="M11.73,7.99c1.08,1.01,2.22,2.06,3.35,3.11.61.57.78,1.19.24,1.89-.49.64-1.01.83-1.67.15-1.51-1.54-3.03-3.05-4.58-4.55-.65-.63-.55-1.12.06-1.7,1.49-1.44,2.95-2.91,4.42-4.36.48-.47.94-.91,1.6-.2.62.67.68,1.33.05,2-1.06,1.14-2.14,2.25-3.47,3.65Z"/>
  <path class="cls-1" d="M4.25,7.86c-1.39-1.3-2.43-2.27-3.47-3.25-.23-.22-.61-.5-.59-.71.06-.57.24-1.16.52-1.65.06-.11.89.02,1.16.26,1.55,1.44,3.01,2.97,4.54,4.43.59.57.62,1.01.02,1.59-1.49,1.44-2.96,2.91-4.42,4.38-.46.47-.88.85-1.5.25-.62-.6-.72-1.24-.11-1.88.71-.75,1.45-1.49,2.21-2.19.41-.38.89-.68,1.63-1.23Z"/>
  <path class="cls-1" d="M67.79,14.54h-2.26V1.2h2.26v13.34Z"/>
  <path class="cls-1" d="M32.39,8.34h-6.05v-2.26h6.05v2.26Z"/>
</svg>