<?xml version="1.0" encoding="UTF-8"?>
<svg id="Camada_1" data-name="Camada 1" xmlns="http://www.w3.org/2000/svg" viewBox="0 0 171.06 54.84">
  <defs>
    <style>
      .cls-1 {
        fill: #fff;
        stroke-width: 0px;
      }
    </style>
  </defs>
  <g>
    <g>
      <path class="cls-1" d="M98.83,42.98c0,.5-.06.89-.19,1.19-.13.29-.33.51-.59.64-.27.14-.64.2-1.13.2h-1.03v-4.07h1.02c.47,0,.85.07,1.12.2.27.14.48.35.61.65.13.3.2.69.2,1.18ZM98.26,42.98c0-.39-.04-.69-.13-.91-.09-.22-.23-.38-.43-.48-.2-.1-.47-.15-.83-.15h-.45v3.08h.45c.36,0,.63-.05.83-.15.19-.1.34-.26.42-.48.09-.22.13-.53.13-.92Z"/>
      <path class="cls-1" d="M100.92,45.01v-4.07h2.49v.49h-1.94v1.19h1.66v.49h-1.66v1.4h1.94v.49h-2.49Z"/>
      <path class="cls-1" d="M108.24,43.9c0,.38-.12.67-.37.88-.25.21-.61.31-1.09.31-.37,0-.67-.06-.92-.19-.24-.13-.44-.33-.6-.6l.44-.29c.23.41.58.61,1.06.61.29,0,.51-.06.68-.18.17-.12.25-.29.25-.5,0-.12-.03-.22-.08-.3-.05-.08-.12-.15-.21-.21-.09-.06-.18-.1-.3-.14-.11-.03-.23-.07-.35-.1-.2-.05-.39-.1-.56-.15-.17-.05-.32-.12-.45-.2s-.23-.19-.3-.32-.11-.29-.11-.5c0-.36.12-.65.35-.86.23-.21.58-.32,1.04-.32.37,0,.66.07.88.2.22.14.39.31.52.52l-.43.31c-.11-.18-.23-.31-.39-.41s-.35-.14-.58-.14c-.26,0-.47.06-.62.17-.15.12-.22.27-.22.47,0,.1.02.19.07.26.04.07.11.13.19.18.08.05.18.09.31.12.12.03.26.07.42.11.18.05.36.1.53.15.17.05.31.12.44.21.12.09.22.2.3.34s.11.32.11.53Z"/>
      <path class="cls-1" d="M111.67,41.44v3.58h-.54v-3.58h-1.35v-.49h3.24v.49h-1.35Z"/>
      <path class="cls-1" d="M116.31,45.01h-1.66v-.47h.56v-3.13h-.56v-.46h1.66v.46h-.56v3.13h.56v.47Z"/>
      <path class="cls-1" d="M118.34,45.01v-4.07h.54v3.57h1.84v.49h-2.38Z"/>
      <path class="cls-1" d="M122.21,45.01l1.39-4.07h.71l1.39,4.07h-.57l-.35-1.06h-1.66l-.35,1.06h-.56ZM123.28,43.46h1.32l-.66-1.98-.66,1.98Z"/>
      <path class="cls-1" d="M129.87,45.01l-1.04-1.66h-.71v1.66h-.54v-4.07h1.26c.51,0,.87.09,1.09.28.22.19.33.47.33.86,0,.33-.07.6-.2.79-.13.19-.35.32-.65.39l1.1,1.75h-.64ZM129.7,42.13c0-.27-.07-.45-.2-.55-.14-.1-.36-.15-.66-.15h-.71v1.45h.68c.23,0,.41-.02.54-.07.13-.05.22-.12.28-.23.06-.1.08-.25.08-.44Z"/>
      <path class="cls-1" d="M133.85,45.01h-1.66v-.47h.56v-3.13h-.56v-.46h1.66v.46h-.56v3.13h.56v.47Z"/>
      <path class="cls-1" d="M135.5,45.01l1.39-4.07h.71l1.39,4.07h-.57l-.35-1.06h-1.66l-.35,1.06h-.56ZM136.57,43.46h1.32l-.66-1.98-.66,1.98Z"/>
    </g>
    <path class="cls-1" d="M71.07,23.76c-.03-.79-.34-.22-.34-.22,0,0-.8,2.95-1.03,3.37-.23.41-.83,1.73-1.71,2.44-.88.71-1.44,1.08-1.68,1.12-.24.04-.32.01-.1-.73.25-.82.79-3.7.84-3.98.05-.28.59-2.65.49-3.53-.05-.51.35-3.31.42-3.52.06-.21.62-3.89.57-4.58-.06-.75-.74-2.39-.88-2.84-.15-.45-.29-1.79-.56-2.36-.27-.58-.16-1.12-.45-1.07-.29.05,0,1.07,0,1.19,0,.13.1,1.5.11,1.92.02.42.31,1.91.44,2.24.13.33.26.97.16,1.56-.1.59-.19,1.57-.4,1.85-.2.28-.81,1.3-1.56.48-.23-.25-.92-1.77-1.24-2.26-.3-.46-.65-1.41-1.05-1.91-.41-.5-.75-.95-1.66-1.79-.91-.85-.98-1.13-1.29-1.53-.31-.39-1-1.35-1.32-1.72-.21-.24-.57-.28-.06.51.5.79,1.32,2.47,1.73,3,.41.53,1.1,1.86,1.31,2.24.21.39.88,1.75,1.16,2.25.28.5.79,1.66,1.17,2.47.38.81,1.02,2.44,1.13,3.89.11,1.45-.05,2.49-.32,3.57-.27,1.08-.21,2.2-.43,2.98,0,0-.13,1.93-1.3,3.14-.48.5-1.01.94-1.48,1.31,0-1.18-.05-2.17-.07-2.32,0,0-.37-.14-.51.95-.08.61-.13,1.33-.2,1.94-.32.22-.58.38-.7.46-.36.23-2.64,1.35-3.5,1.99-.86.64-5.53,3.68-5.78,3.94-.26.27-.59.37-.59.37,0,0-.02-2.13,0-2.38.01-.09.02-.42.03-.81l1.01.12-.14-1.63-.84.25c0-.21.01-.37.02-.42.04-.23.12-1.88.17-2.16.05-.28.44-2.5.05-2.56-.38-.06-.35.9-.68,1.62-.33.72-.47,2.31-.56,2.8-.03.14-.06.47-.1.88-1.16.12-3.19.33-4.64.49-1.61.17-3.76.45-5.49.68-.07-.83-.15-1.7-.19-1.95-.09-.48-.23-2.07-.56-2.8-.33-.72-.3-1.68-.68-1.62-.38.06,0,2.28.05,2.56.05.28.13,1.93.17,2.16.02.16.03,1.11.04,1.8-1.05.15-1.76.25-1.76.25l.45.29s.52-.02,1.32-.04c0,.09,0,.17.01.2.03.25,0,2.38,0,2.38,0,0-.33-.1-.58-.37-.26-.27-4.92-3.31-5.79-3.95-.86-.64-3.14-1.75-3.5-1.98-.12-.08-.37-.24-.7-.46-.07-.61-.12-1.33-.2-1.94-.15-1.09-.52-.95-.52-.95-.03.15-.07,1.14-.07,2.32-.48-.37-1-.81-1.48-1.31-1.17-1.21-1.3-3.14-1.3-3.14-.21-.78-.16-1.89-.43-2.98-.27-1.09-.43-2.13-.32-3.57.11-1.45.75-3.08,1.13-3.89.38-.81.89-1.96,1.17-2.46.28-.5.95-1.86,1.16-2.24.21-.39.9-1.71,1.31-2.24.41-.53,1.23-2.21,1.73-2.99.5-.79.14-.75-.07-.51-.32.37-1.01,1.32-1.32,1.72-.31.4-.38.68-1.29,1.53-.91.84-1.25,1.29-1.65,1.79-.41.5-.76,1.45-1.06,1.91-.32.48-1.01,2-1.24,2.25-.75.82-1.36-.2-1.56-.48-.2-.28-.29-1.26-.39-1.85-.1-.59.03-1.24.15-1.56.13-.33.42-1.82.44-2.24.02-.42.12-1.79.11-1.92,0-.12.28-1.14,0-1.19-.29-.05-.18.49-.45,1.07-.27.58-.41,1.92-.56,2.37-.15.45-.83,2.09-.88,2.83-.05.7.51,4.38.57,4.58.07.21.48,3.01.42,3.52-.09.88.44,3.25.49,3.53.06.28.59,3.17.84,3.99.22.74.14.77-.1.73-.24-.04-.8-.4-1.68-1.12-.88-.71-1.48-2.03-1.71-2.44-.23-.41-1.03-3.37-1.03-3.37,0,0-.31-.57-.34.22-.03.79.31,3.04.83,4.43.51,1.35,1.76,2.49,1.93,2.65.17.16,2.11,1.21,2.95,2.31.6.79,2.51,2.12,3.76,2.88.01.1.03.2.04.3.29,1.88.88,3,2.94,4.2,2.14,1.25,3.46.41,5.96,1.17,2.51.76,1.87,2.79,1.87,2.79,0,0,.18,1.38,1.87,1.08,2.08-.37,1.41-2.73,1.41-2.73,0,0-1-.44-.97-.78.03-.34-.13-.72-.38-1.03-.25-.31-.33-1.81-.3-1.99.01-.06-.01-.53-.06-1.12,1.68-.06,3.87-.16,5.53-.28,1.39-.1,3.27-.24,4.45-.32-.06.79-.11,1.53-.09,1.61.03.17-.05,1.67-.3,1.98-.25.31-.41.69-.38,1.03.03.34-.94.86-.94.86,0,0-.7,2.29,1.39,2.66,1.69.3,1.88-1.09,1.88-1.09,0,0-.64-2.04,1.86-2.79,2.51-.76,3.83.08,5.97-1.17,2.06-1.21,2.65-2.32,2.94-4.2.01-.1.03-.2.04-.3,1.25-.76,3.16-2.09,3.76-2.87.84-1.11,2.78-2.16,2.95-2.32.17-.16,1.42-1.29,1.93-2.65.52-1.39.87-3.64.83-4.43ZM33.09,39.56c-1.95.12-3.44-.96-4.02-1.53-.23-.23-.45-.65-.64-1.12.84.38,2.18,1.12,2.18,1.12,0,0,2.6,1.51,2.48,1.52ZM55.36,39.44c-.12,0,2.48-1.52,2.48-1.52,0,0,1.35-.74,2.18-1.13-.19.47-.41.9-.64,1.12-.58.56-2.07,1.64-4.02,1.52Z"/>
  </g>
  <g>
    <path class="cls-1" d="M93.43,22.13v12.34c0,.94.24,1.45,1.16,1.52v.77h-5.8v-.77c.92-.07,1.16-.58,1.16-1.52v-5.75h-7.29v5.75c0,.94.24,1.45,1.16,1.52v.77h-5.8v-.77c.92-.07,1.16-.58,1.16-1.52v-12.34c0-.94-.24-1.42-1.16-1.52v-.75h5.8v.75c-.92.1-1.16.58-1.16,1.52v5.22h7.29v-5.22c0-.94-.24-1.42-1.16-1.52v-.75h5.8v.75c-.92.1-1.16.58-1.16,1.52Z"/>
    <path class="cls-1" d="M112.92,35.99v.77h-6.52v-.77c.94-.05,1.38-.63,1.04-1.52l-1.14-2.85h-6.23l-1.06,2.85c-.34.94.02,1.45.94,1.52v.77h-4.15v-.77c.89-.07,1.38-.6,1.69-1.52l4.47-12.12c.36-.94.22-1.67-.75-1.74v-.75h3.86l6.11,14.61c.39.89.85,1.45,1.74,1.52ZM105.75,30.24l-2.66-6.81-2.51,6.81h5.17Z"/>
    <path class="cls-1" d="M127.58,32.2l-.48,4.56h-13.33v-1.4l9.32-14.1h-4.98c-2.27,0-3.07,1.86-3.41,3.14h-.6l.48-4.54h12.39v1.4l-9.25,14.1h5.84c2.25,0,3.07-1.88,3.41-3.16h.6Z"/>
    <path class="cls-1" d="M142.12,32.2l-.48,4.56h-12.49v-.77c.92-.07,1.14-.58,1.14-1.52v-12.34c0-.94-.22-1.42-1.14-1.52v-.75h12.03l.46,4.54h-.6c-.34-1.28-1.14-3.16-3.41-3.16h-3.84v6.26h2.56c1.67,0,1.98-.56,2.15-1.57h.6v4.54h-.6c-.17-1.01-.48-1.57-2.15-1.57h-2.56v6.47h4.32c2.25,0,3.07-1.88,3.41-3.16h.6Z"/>
    <path class="cls-1" d="M156.85,32.2l-.48,4.56h-12.56v-.77c.89-.07,1.14-.58,1.14-1.52v-12.34c0-.94-.24-1.42-1.14-1.52v-.75h5.8v.75c-.92.1-1.16.58-1.16,1.52v13.24h4.4c2.25,0,3.07-1.88,3.41-3.16h.6Z"/>
  </g>
</svg>