<?xml version="1.0" encoding="UTF-8"?>
<svg id="Camada_1" data-name="Camada 1" xmlns="http://www.w3.org/2000/svg" viewBox="0 0 171.06 54.84">
  <defs>
    <style>
      .cls-1 {
        fill: #fff;
        stroke-width: 0px;
      }
    </style>
  </defs>
  <path class="cls-1" d="M80.65,34.69c.86-1.49,1.05-2.98,1.42-4.41.18-.71.36-1.42.57-2.12.12-.41.36-.8.85-.75.53.06.66.52.69.98.06.94.11,1.87.17,2.81.02.38-.03.77.34,1.25.9-1.91,2.31-3.53,1.75-5.81-.13-.52-.23-1.06.24-1.48.22-.2.49-.16.74-.02.57.33.5.88.49,1.41-.03,1.29.79,1.96,2.07,1.69.93-.2,1.69-.53,1.89-1.65.15-.81.59-1.53,1.13-2.17.72-.86,1.79-1.08,2.59-.57.8.51.98,1.41.43,2.5-.6,1.19-1.54,2.01-2.86,2.26-.67.13-.86.45-.85,1.07.02.8.05,1.58.39,2.32.54,1.19,1.46,1.51,2.57.83,1.41-.86,2.4-2.14,3.36-3.44.96-1.29,1.92-2.58,2.34-4.2.19-.74.65-1.38,1.25-1.89.71-.6,1.67-.66,2.36-.16.62.44.8,1.25.44,2.15-.56,1.37-1.57,2.25-3.02,2.56-.57.12-.77.36-.77.93,0,.83.02,1.64.33,2.42.45,1.13,1.32,1.48,2.4.95,1.17-.57,1.94-1.59,2.78-2.52.04-.04.07-.1.11-.14,1.74-1.86,2.69-3.92,2.19-6.58-.27-1.45-.15-2.98-.2-4.48-.01-.32.08-.64-.49-.54-1.53.28-3.06.56-4.48,1.23-.39.19-.81.33-.9.86-.05.29-.32.43-.61.37-.37-.08-.4-.4-.37-.7.11-.85.76-1.21,1.45-1.5,1.49-.64,3.07-.97,4.67-1.2.62-.09.75-.33.75-.89.03-2.23.16-4.45.69-6.63.14-.58.36-1.12.67-1.62.29-.47.73-.68,1.28-.58.52.09.71.51.78.96.22,1.26.06,2.51-.19,3.75-.27,1.3-.66,2.55-1.22,3.75-.11.23-.34.51-.19.73.16.24.49.08.74.05,2.01-.24,4.03-.35,6.06-.29.54.01,1.05.12,1.53.35.3.14.44.38.4.71-.04.36-.27.59-.59.7-.35.12-.57-.06-.64-.4-.07-.32-.33-.29-.55-.3-2.44-.13-4.86.07-7.28.37-.47.06-.46.34-.47.68-.02,3.49.24,6.97.62,10.44.26,2.36.51,4.73,1.29,6.99.28.8.38,1.75,1.42,2.05.25.07.28.37.19.61-.12.35-.44.38-.73.32-.71-.15-1.05-.72-1.33-1.31-.66-1.36-1-2.82-1.24-4.29-.28-1.69-.51-3.4-.77-5.15-.79,1.01-1.53,1.98-2.31,2.92-.72.86-1.53,1.62-2.54,2.14-1.6.83-3.02.35-3.78-1.28-.37-.78-.48-1.62-.51-2.62-.67.84-1.26,1.58-1.85,2.32-.55.69-1.19,1.3-1.89,1.83-2.36,1.77-4.58.85-5.02-2.08-.08-.52-.13-1.05-.12-1.57,0-.55-.2-.67-.69-.5-.87.29-1.74.31-2.55-.17-.43-.26-.57-.16-.73.28-.32.88-.69,1.74-1.1,2.59-.2.42-.47.82-.77,1.17-.74.87-1.53.71-1.89-.37-.14-.41-.23-.84-.36-1.26-.01-.04-.09-.06-.19-.13-.08.33-.17.63-.22.94-.14.78-.35,1.55-.69,2.26-.3.62-.66,1.27-1.44,1.24-.8-.03-1.07-.73-1.29-1.38-.37-1.09-.57-2.21-.63-3.36-.03-.62-.13-.97-.86-.5-1.18.76-2.41,1.45-3.62,2.17-.25.15-.52.24-.27.65,1.79,3.01,1.22,6-.22,8.9-1.43,2.86-3.65,5.1-6.15,7.04-2.9,2.24-6.05,4.03-9.7,4.76-.7.14-1.4.15-2.1.1-2.08-.15-3.18-1.72-2.65-3.75.58-2.22,1.84-4.05,3.4-5.67,3.63-3.8,7.91-6.8,12.2-9.78.87-.6,1.76-1.17,2.66-1.71.6-.36.48-.59-.03-.9-1.72-1.04-3.63-1.44-5.57-1.79-3.35-.59-6.77-.67-10.09-1.42-.89-.2-1.77-.42-2.61-.76-3.26-1.34-4.57-4.09-3.7-7.57,1.05-4.2,3.17-7.8,6.01-11.01,2.53-2.86,5.34-5.36,8.86-6.96.92-.42,1.88-.66,2.88-.75,1.84-.17,3.43.88,4.08,2.69.79,2.17.54,4.39.22,6.61-.04.31-.23.55-.59.52-.47-.05-.45-.41-.4-.73.21-1.22.25-2.45.22-3.68-.08-3.86-2.15-5.27-5.74-3.82-3.14,1.27-5.63,3.45-7.91,5.89-2.96,3.17-5.32,6.68-6.5,10.93-1.08,3.92.5,6.52,4.47,7.45,3.18.74,6.43.92,9.65,1.41,2.29.35,4.59.64,6.68,1.76.15.08.35.13.46.26.92,1.01,1.77.66,2.72,0,1.11-.76,2.3-1.41,3.48-2.07.41-.23.6-.49.56-.97-.04-.67,0-1.35.2-2,.1-.35.26-.66.59-.83.22-.11.46-.1.66.08.15.13.21.34.11.48-.93,1.24-.53,2.67-.46,4,.09,1.53.23,3.1,1.01,4.73ZM74.01,36.84c.05-.68-.19-1.63-.65-2.54-.31-.61-.61-.81-1.28-.37-1.89,1.23-3.8,2.44-5.62,3.78-3.28,2.42-6.62,4.77-9.38,7.81-1.19,1.31-2.19,2.75-2.78,4.44-.74,2.12.33,3.43,2.57,3.15,1.05-.13,2.09-.34,3.08-.72,4.6-1.75,8.42-4.56,11.46-8.44,1.56-1.99,2.56-4.19,2.6-7.11ZM111.17,8.38c-1.13,2.06-.96,4.36-1.19,6.58.93-2.1,1.55-4.25,1.19-6.58ZM101.48,26.89c1.17-.16,1.9-.78,2.45-1.64.25-.4.48-.86,0-1.25-.49-.4-.9-.05-1.22.28-.66.69-.96,1.57-1.23,2.61ZM92.98,27.63c.95-.33,1.75-.87,2.18-1.85.16-.36.26-.76-.14-1.02-.36-.24-.74-.11-1.05.15-.74.64-1.02,1.54-1.3,2.43-.07.23.04.33.3.29Z"/>
  <path class="cls-1" d="M105.82,38.79c.03.24.07.53.11.82.03.26-.01.49-.31.52-.29.03-.43-.17-.45-.43-.03-.38,0-.76-.06-1.14-.05-.33-.05-.73-.49-.84-.22-.06-.43-.11-.33-.39.09-.24.37-.42.56-.3.51.33.86.05,1.29-.16.61-.29,1.19.07,1.44.74.21.58-.03,1.31.61,1.75.13.09-.02.28-.14.35-.22.12-.46.12-.65-.06-.3-.28-.32-.66-.38-1.04-.07-.42.05-1.1-.62-1.06-.69.04-.55.7-.59,1.23Z"/>
  <path class="cls-1" d="M95.07,39.81c-.03-.8.28-1.28.85-1.56.53-.26,1.03-.14,1.47.23.29.25.41.57.36.94-.05.43-.43.42-.73.5-.14.04-.29.03-.43.06-.23.06-.63,0-.56.37.06.33.41.38.72.3.08-.02.16-.07.24-.1.26-.09.52-.62.78-.14.21.39-.23.61-.52.77-1.04.58-2.17-.22-2.18-1.38ZM96.23,39.46c.27-.05.66.04.75-.28.07-.26-.23-.37-.47-.38-.32-.02-.59.15-.66.46-.05.26.22.19.38.21Z"/>
  <path class="cls-1" d="M100.61,39.54c.39.6.84.53,1.32.3.2-.1.42-.31.61-.02.19.3-.05.51-.27.64-.63.37-1.29.42-1.88-.05-.58-.45-.74-1.52-.36-2.18.39-.69,1.02-.84,1.73-.67.47.11.74.45.77.95.03.54-.33.7-.75.8-.36.08-.72.14-1.16.22ZM101.79,38.52c0-.28-.18-.38-.4-.4-.35-.02-.63.13-.77.46-.1.23.07.32.27.31.35-.02.71-.01.9-.37Z"/>
  <path class="cls-1" d="M79.8,43.64c-.21-.07-.47-.13-.69-.26-.23-.13-.45-.36-.29-.65.2-.36.43-.14.63.04.16.15.35.21.57.18.2-.03.44-.07.45-.33,0-.23-.22-.24-.38-.29-.14-.04-.29-.03-.43-.07-.47-.11-.93-.27-1.02-.82-.07-.43.16-.73.55-.9.53-.24,1.06-.36,1.57.04.14.11.26.26.18.45-.11.25-.31.24-.51.13-.19-.11-.38-.15-.59-.13-.18.02-.36.08-.36.3,0,.18.18.2.32.24.17.04.34.08.51.11.51.11,1.02.26.98.91-.04.58-.48.83-1.01.94-.14.03-.29.06-.48.1Z"/>
  <path class="cls-1" d="M86.67,39.47c.66,1.09,1.16.54,1.69-.26.1-.15.38.08.35.33-.01.17-.06.36-.16.49-.53.7-.23,1.17.4,1.56.21.13.54.27.3.6-.25.34-.54.13-.73-.09-.51-.59-.89-.65-1.21.18-.1.26-.38.57-.68.4-.39-.21-.09-.54.08-.73.59-.65.49-1.17-.2-1.65-.19-.13-.36-.32-.28-.59.04-.15.17-.23.44-.24Z"/>
  <path class="cls-1" d="M92.62,41.91c-.67-.02-.87-.42-1.08-.92-.22-.54.14-1.34-.71-1.63-.14-.05-.05-.29.06-.37.32-.24.38-.56.34-.93-.03-.23.07-.41.32-.43.27-.02.36.19.36.4,0,.48.08.81.68.61.14-.05.3.03.34.2.06.21-.07.36-.25.39-.8.13-.67.68-.54,1.19.1.44.15,1,.88.73.22-.08.34.11.28.3-.1.38-.44.41-.7.46Z"/>
  <path class="cls-1" d="M83.28,40.71c-.03-.47-.06-.78.28-.84.35-.06.42.22.46.5.1.69.21,1.38.31,2.07.03.24.05.49-.27.54-.3.05-.41-.16-.45-.41-.12-.69-.25-1.38-.33-1.86Z"/>
  <path class="cls-1" d="M83.82,38.72c.01.3-.18.42-.42.46-.29.04-.41-.15-.42-.41-.02-.24.09-.38.34-.38.25,0,.45.07.5.34Z"/>
</svg>