<?xml version="1.0" encoding="UTF-8"?>
<svg id="Camada_1" data-name="Camada 1" xmlns="http://www.w3.org/2000/svg" xmlns:xlink="http://www.w3.org/1999/xlink" viewBox="0 0 165.7 36.24">
  <defs>
    <style>
      .cls-1, .cls-2 {
        fill: #f6f7f9;
      }

      .cls-2 {
        stroke-width: 0px;
      }

      .cls-3 {
        clip-path: url(#clippath);
      }
    </style>
    <clipPath id="clippath">
      <path class="cls-2" d="M125.75,18.51l-7.19,4.15c-.93.54-1.51,1.53-1.51,2.61v8.32c0,1.16,1.26,1.88,2.26,1.31l7.19-4.15c.93-.54,1.51-1.53,1.51-2.61v-8.32c0-.88-.72-1.51-1.51-1.51-.25,0-.51.06-.75.2"/>
    </clipPath>
  </defs>
  <path class="cls-2" d="M20.43,1.69c-1.7-.89-3.69-1.34-5.9-1.34H.91c-.5,0-.91.41-.91.91v33.38c0,.5.41.91.91.91h5.31c.5,0,.91-.41.91-.91v-11.74h7.41c2.15,0,4.1-.45,5.8-1.34,1.7-.89,3.08-2.18,4.07-3.82,1-1.64,1.5-3.58,1.5-5.77v-.69c0-2.22-.49-4.17-1.45-5.79-.96-1.62-2.32-2.9-4.02-3.8M7.13,6.88h6.76c1.46,0,2.66.41,3.55,1.21.9.8,1.33,1.88,1.33,3.28v.49c0,1.41-.44,2.48-1.33,3.28-.89.8-2.09,1.21-3.55,1.21h-6.76V6.88Z"/>
  <path class="cls-2" d="M43.81,11.24c0-.5-.41-.91-.91-.91h-2.36c-1.17,0-2.2.25-3.09.73-.84.46-1.47,1.18-1.87,2.14h-.38v-1.86c0-.5-.41-.91-.91-.91h-4.92c-.5,0-.91.41-.91.91v23.3c0,.5.41.91.91.91h5.01c.5,0,.91-.41.91-.91v-13.33c0-1.64.48-2.87,1.42-3.65.96-.79,2.21-1.19,3.71-1.19h2.46c.5,0,.91-.41.91-.91v-4.32Z"/>
  <path class="cls-2" d="M64.39,11.25c-1.98-1.01-4.24-1.52-6.71-1.52s-4.73.51-6.71,1.52c-1.99,1.01-3.58,2.5-4.72,4.41-1.14,1.92-1.72,4.25-1.72,6.93v.79c0,2.68.58,5.01,1.72,6.93,1.14,1.92,2.73,3.4,4.72,4.41,1.98,1.01,4.23,1.52,6.71,1.52s4.73-.51,6.71-1.52c1.99-1.01,3.57-2.5,4.72-4.41,1.14-1.92,1.72-4.25,1.72-6.93v-.79c0-2.68-.58-5.01-1.72-6.93-1.14-1.92-2.73-3.4-4.72-4.41M64,22.74v.49c0,2.21-.6,3.93-1.79,5.1-1.19,1.17-2.71,1.77-4.53,1.77s-3.34-.59-4.53-1.77c-1.19-1.17-1.79-2.89-1.79-5.1v-.49c0-2.21.6-3.93,1.79-5.1,1.19-1.17,2.71-1.77,4.53-1.77s3.38.59,4.55,1.76c1.17,1.17,1.76,2.89,1.76,5.1"/>
  <path class="cls-2" d="M100.82,15.28c-1.04-1.92-2.45-3.4-4.17-4.39-1.72-.99-3.62-1.5-5.64-1.5-1.51,0-2.8.18-3.83.54-1.04.36-1.88.82-2.52,1.37-.58.5-1.06,1.04-1.43,1.61h-.42V.91c0-.5-.41-.91-.91-.91h-5.01c-.5,0-.91.41-.91.91v33.38c0,.5.41.91.91.91h4.92c.5,0,.91-.41.91-.91v-2.06h.42c.58.9,1.47,1.73,2.62,2.47,1.23.79,3,1.18,5.25,1.18,2.02,0,3.92-.5,5.64-1.5,1.72-.99,3.12-2.47,4.17-4.39,1.04-1.92,1.57-4.26,1.57-6.96v-.79c0-2.71-.53-5.05-1.57-6.97M95.56,22.39v.49c0,2.28-.62,4.02-1.83,5.19-1.22,1.17-2.76,1.77-4.58,1.77s-3.36-.6-4.58-1.77c-1.22-1.17-1.83-2.92-1.83-5.19v-.49c0-2.28.62-4.02,1.83-5.19,1.22-1.17,2.76-1.77,4.58-1.77s3.4.59,4.61,1.77c1.2,1.17,1.81,2.92,1.81,5.19"/>
  <path class="cls-2" d="M146.84,22.54l7.97-11.02c.44-.6,0-1.44-.74-1.44h-5.71c-.3,0-.58.15-.75.4l-5.31,7.76h-.57l-5.31-7.76c-.17-.25-.45-.4-.75-.4h-5.71c-.74,0-1.17.84-.74,1.44l7.97,11.02-8.08,11.22c-.43.6,0,1.44.74,1.44h5.81c.3,0,.58-.15.75-.4l5.31-7.85h.57l5.31,7.85c.17.25.45.4.75.4h5.81c.74,0,1.17-.84.74-1.44l-8.08-11.22Z"/>
  <path class="cls-2" d="M125.75,18.51l-7.19,4.15c-.93.54-1.51,1.53-1.51,2.61v8.32c0,1.16,1.26,1.88,2.26,1.31l7.19-4.15c.93-.54,1.51-1.53,1.51-2.61v-8.32c0-.88-.72-1.51-1.51-1.51-.25,0-.51.06-.75.2"/>
  <g>
    <path class="cls-1" d="M125.75,18.51l-7.19,4.15c-.93.54-1.51,1.53-1.51,2.61v8.32c0,1.16,1.26,1.88,2.26,1.31l7.19-4.15c.93-.54,1.51-1.53,1.51-2.61v-8.32c0-.88-.72-1.51-1.51-1.51-.25,0-.51.06-.75.2"/>
    <g class="cls-3">
      <polygon class="cls-2" points="110.39 21.48 125.99 14.06 134.67 32.31 113.09 48.33 110.39 21.48"/>
    </g>
  </g>
  <g>
    <path class="cls-2" d="M104.28,19.82v8.3c0,1.08.57,2.07,1.5,2.61l7.21,4.16c1,.58,2.26-.14,2.26-1.3v-8.3c0-1.08-.57-2.07-1.5-2.61l-7.2-4.16c-.24-.14-.5-.2-.75-.2-.79,0-1.51.63-1.51,1.51"/>
    <path class="cls-2" d="M114.63,10.58l-7.2,4.16c-1,.58-1,2.03,0,2.61l7.19,4.15c.93.54,2.08.54,3.02,0l7.2-4.16c1-.58,1-2.03,0-2.61l-7.19-4.15c-.47-.27-.99-.4-1.51-.4-.52,0-1.04.13-1.51.4"/>
    <path class="cls-2" d="M158.51,32.64c0,1.99,1.61,3.6,3.6,3.6s3.6-1.61,3.6-3.6-1.61-3.6-3.6-3.6-3.6,1.61-3.6,3.6"/>
  </g>
</svg>